<svg width="1725" height="950" viewBox="0 0 1725 950" fill="none" xmlns="http://www.w3.org/2000/svg">
<rect x="205.086" y="37" width="24" height="2" fill="white"/>
<path d="M205.086 45H221.086V47H205.086V45Z" fill="white"/>
<path d="M1465.04 48.8085C1464.23 49.2218 1462.99 49.4285 1461.32 49.4285C1459.65 49.4285 1458.41 49.2218 1457.58 48.8085C1456.77 48.3952 1456.36 47.6485 1456.36 46.5685V44.3285C1456.36 43.8885 1456.57 43.4885 1457 43.1285C1457.44 42.7552 1457.95 42.5018 1458.52 42.3685V42.2885C1458.08 42.2352 1457.68 42.0552 1457.32 41.7485C1456.97 41.4285 1456.8 41.0552 1456.8 40.6285V38.7685C1456.8 37.8618 1457.13 37.1818 1457.78 36.7285C1458.45 36.2752 1459.63 36.0485 1461.32 36.0485C1463.01 36.0485 1464.19 36.2752 1464.84 36.7285C1465.51 37.1818 1465.84 37.8618 1465.84 38.7685V40.6285C1465.84 41.0552 1465.66 41.4285 1465.3 41.7485C1464.95 42.0552 1464.56 42.2352 1464.12 42.2885V42.3685C1464.69 42.5018 1465.19 42.7552 1465.62 43.1285C1466.06 43.4885 1466.28 43.8885 1466.28 44.3285V46.5685C1466.28 47.6485 1465.87 48.3952 1465.04 48.8085ZM1462.86 43.7085C1462.63 43.5352 1462.13 43.4485 1461.34 43.4485C1460.55 43.4485 1460.03 43.5352 1459.78 43.7085C1459.54 43.8818 1459.42 44.1685 1459.42 44.5685V46.3285C1459.42 46.8218 1459.53 47.1485 1459.74 47.3085C1459.95 47.4552 1460.48 47.5285 1461.32 47.5285C1462.16 47.5285 1462.69 47.4552 1462.9 47.3085C1463.11 47.1485 1463.22 46.8218 1463.22 46.3285V44.5685C1463.22 44.1685 1463.1 43.8818 1462.86 43.7085ZM1460.06 41.3285C1460.29 41.5018 1460.71 41.5885 1461.32 41.5885C1461.93 41.5885 1462.35 41.5018 1462.56 41.3285C1462.79 41.1552 1462.9 40.8885 1462.9 40.5285V39.0285C1462.9 38.6552 1462.79 38.3818 1462.56 38.2085C1462.35 38.0352 1461.93 37.9485 1461.32 37.9485C1460.71 37.9485 1460.29 38.0352 1460.06 38.2085C1459.85 38.3818 1459.74 38.6552 1459.74 39.0285V40.5285C1459.74 40.8885 1459.85 41.1552 1460.06 41.3285ZM1481.25 48.8085C1480.44 49.2218 1479.2 49.4285 1477.53 49.4285C1475.86 49.4285 1474.62 49.2218 1473.79 48.8085C1472.98 48.3952 1472.57 47.6485 1472.57 46.5685V44.3285C1472.57 43.8885 1472.78 43.4885 1473.21 43.1285C1473.65 42.7552 1474.16 42.5018 1474.73 42.3685V42.2885C1474.29 42.2352 1473.89 42.0552 1473.53 41.7485C1473.18 41.4285 1473.01 41.0552 1473.01 40.6285V38.7685C1473.01 37.8618 1473.34 37.1818 1473.99 36.7285C1474.66 36.2752 1475.84 36.0485 1477.53 36.0485C1479.22 36.0485 1480.4 36.2752 1481.05 36.7285C1481.72 37.1818 1482.05 37.8618 1482.05 38.7685V40.6285C1482.05 41.0552 1481.87 41.4285 1481.51 41.7485C1481.16 42.0552 1480.77 42.2352 1480.33 42.2885V42.3685C1480.9 42.5018 1481.4 42.7552 1481.83 43.1285C1482.27 43.4885 1482.49 43.8885 1482.49 44.3285V46.5685C1482.49 47.6485 1482.08 48.3952 1481.25 48.8085ZM1479.07 43.7085C1478.84 43.5352 1478.34 43.4485 1477.55 43.4485C1476.76 43.4485 1476.24 43.5352 1475.99 43.7085C1475.75 43.8818 1475.63 44.1685 1475.63 44.5685V46.3285C1475.63 46.8218 1475.74 47.1485 1475.95 47.3085C1476.16 47.4552 1476.69 47.5285 1477.53 47.5285C1478.37 47.5285 1478.9 47.4552 1479.11 47.3085C1479.32 47.1485 1479.43 46.8218 1479.43 46.3285V44.5685C1479.43 44.1685 1479.31 43.8818 1479.07 43.7085ZM1476.27 41.3285C1476.5 41.5018 1476.92 41.5885 1477.53 41.5885C1478.14 41.5885 1478.56 41.5018 1478.77 41.3285C1479 41.1552 1479.11 40.8885 1479.11 40.5285V39.0285C1479.11 38.6552 1479 38.3818 1478.77 38.2085C1478.56 38.0352 1478.14 37.9485 1477.53 37.9485C1476.92 37.9485 1476.5 38.0352 1476.27 38.2085C1476.06 38.3818 1475.95 38.6552 1475.95 39.0285V40.5285C1475.95 40.8885 1476.06 41.1552 1476.27 41.3285ZM1484.35 45.8485V39.6285C1484.35 38.9885 1484.45 38.4418 1484.63 37.9885C1484.83 37.5218 1485.07 37.1685 1485.33 36.9285C1485.61 36.6752 1485.98 36.4818 1486.43 36.3485C1486.9 36.2152 1487.33 36.1352 1487.71 36.1085C1488.1 36.0685 1488.57 36.0485 1489.11 36.0485C1489.65 36.0485 1490.1 36.0685 1490.47 36.1085C1490.86 36.1352 1491.29 36.2218 1491.75 36.3685C1492.22 36.5018 1492.59 36.6885 1492.87 36.9285C1493.17 37.1685 1493.41 37.5218 1493.61 37.9885C1493.81 38.4418 1493.91 38.9885 1493.91 39.6285V45.8485C1493.91 46.4885 1493.81 47.0418 1493.61 47.5085C1493.41 47.9618 1493.17 48.3085 1492.87 48.5485C1492.59 48.7885 1492.22 48.9818 1491.75 49.1285C1491.29 49.2618 1490.86 49.3418 1490.47 49.3685C1490.1 49.4085 1489.65 49.4285 1489.11 49.4285C1488.57 49.4285 1488.1 49.4085 1487.71 49.3685C1487.33 49.3418 1486.9 49.2618 1486.43 49.1285C1485.98 48.9952 1485.61 48.8085 1485.33 48.5685C1485.07 48.3152 1484.83 47.9618 1484.63 47.5085C1484.45 47.0418 1484.35 46.4885 1484.35 45.8485ZM1487.31 39.4285V46.0485C1487.31 46.6752 1487.41 47.0818 1487.61 47.2685C1487.81 47.4552 1488.33 47.5485 1489.15 47.5485C1489.97 47.5485 1490.47 47.4552 1490.65 47.2685C1490.85 47.0818 1490.95 46.6752 1490.95 46.0485V39.4285C1490.95 38.8018 1490.85 38.3952 1490.65 38.2085C1490.47 38.0218 1489.97 37.9285 1489.15 37.9285C1488.33 37.9285 1487.81 38.0218 1487.61 38.2085C1487.41 38.3952 1487.31 38.8018 1487.31 39.4285ZM1495.95 45.8485V39.6285C1495.95 38.9885 1496.05 38.4418 1496.23 37.9885C1496.43 37.5218 1496.67 37.1685 1496.93 36.9285C1497.21 36.6752 1497.58 36.4818 1498.03 36.3485C1498.5 36.2152 1498.93 36.1352 1499.31 36.1085C1499.7 36.0685 1500.17 36.0485 1500.71 36.0485C1501.25 36.0485 1501.7 36.0685 1502.07 36.1085C1502.46 36.1352 1502.89 36.2218 1503.35 36.3685C1503.82 36.5018 1504.19 36.6885 1504.47 36.9285C1504.77 37.1685 1505.01 37.5218 1505.21 37.9885C1505.41 38.4418 1505.51 38.9885 1505.51 39.6285V45.8485C1505.51 46.4885 1505.41 47.0418 1505.21 47.5085C1505.01 47.9618 1504.77 48.3085 1504.47 48.5485C1504.19 48.7885 1503.82 48.9818 1503.35 49.1285C1502.89 49.2618 1502.46 49.3418 1502.07 49.3685C1501.7 49.4085 1501.25 49.4285 1500.71 49.4285C1500.17 49.4285 1499.7 49.4085 1499.31 49.3685C1498.93 49.3418 1498.5 49.2618 1498.03 49.1285C1497.58 48.9952 1497.21 48.8085 1496.93 48.5685C1496.67 48.3152 1496.43 47.9618 1496.23 47.5085C1496.05 47.0418 1495.95 46.4885 1495.95 45.8485ZM1498.91 39.4285V46.0485C1498.91 46.6752 1499.01 47.0818 1499.21 47.2685C1499.41 47.4552 1499.93 47.5485 1500.75 47.5485C1501.57 47.5485 1502.07 47.4552 1502.25 47.2685C1502.45 47.0818 1502.55 46.6752 1502.55 46.0485V39.4285C1502.55 38.8018 1502.45 38.3952 1502.25 38.2085C1502.07 38.0218 1501.57 37.9285 1500.75 37.9285C1499.93 37.9285 1499.41 38.0218 1499.21 38.2085C1499.01 38.3952 1498.91 38.8018 1498.91 39.4285ZM1521.18 44.2085V46.3285C1521.18 47.4485 1520.8 48.2485 1520.02 48.7285C1519.25 49.1952 1518.06 49.4285 1516.44 49.4285C1515.31 49.4285 1513.86 49.3285 1512.08 49.1285V46.8085C1512.22 46.8352 1512.43 46.8818 1512.72 46.9485C1513.02 47.0018 1513.21 47.0418 1513.3 47.0685C1513.41 47.0818 1513.58 47.1085 1513.8 47.1485C1514.04 47.1885 1514.22 47.2152 1514.34 47.2285C1514.48 47.2418 1514.64 47.2618 1514.84 47.2885C1515.04 47.3018 1515.24 47.3152 1515.42 47.3285C1515.62 47.3285 1515.84 47.3285 1516.06 47.3285C1516.84 47.3285 1517.37 47.2352 1517.66 47.0485C1517.97 46.8618 1518.12 46.5085 1518.12 45.9885V44.4885C1518.12 43.8618 1517.45 43.5485 1516.1 43.5485L1513.74 43.5485V41.5485L1516.1 41.5485C1517.14 41.5485 1517.66 41.1685 1517.66 40.4085V39.1485C1517.66 38.7352 1517.54 38.4552 1517.28 38.3085C1517.04 38.1485 1516.52 38.0685 1515.72 38.0685C1514.95 38.0685 1513.78 38.1485 1512.2 38.3085V36.2285C1514.03 36.1085 1515.31 36.0485 1516.04 36.0485C1517.62 36.0485 1518.78 36.2285 1519.52 36.5885C1520.28 36.9485 1520.66 37.6152 1520.66 38.5885V40.7285C1520.66 41.1418 1520.54 41.4818 1520.28 41.7485C1520.04 42.0018 1519.76 42.1752 1519.42 42.2685C1520.6 42.6952 1521.18 43.3418 1521.18 44.2085ZM1523.77 45.8485V39.6285C1523.77 38.9885 1523.86 38.4418 1524.05 37.9885C1524.25 37.5218 1524.48 37.1685 1524.75 36.9285C1525.03 36.6752 1525.39 36.4818 1525.85 36.3485C1526.31 36.2152 1526.74 36.1352 1527.13 36.1085C1527.51 36.0685 1527.98 36.0485 1528.53 36.0485C1529.06 36.0485 1529.51 36.0685 1529.89 36.1085C1530.27 36.1352 1530.7 36.2218 1531.17 36.3685C1531.63 36.5018 1532.01 36.6885 1532.29 36.9285C1532.58 37.1685 1532.83 37.5218 1533.03 37.9885C1533.23 38.4418 1533.33 38.9885 1533.33 39.6285V45.8485C1533.33 46.4885 1533.23 47.0418 1533.03 47.5085C1532.83 47.9618 1532.58 48.3085 1532.29 48.5485C1532.01 48.7885 1531.63 48.9818 1531.17 49.1285C1530.7 49.2618 1530.27 49.3418 1529.89 49.3685C1529.51 49.4085 1529.06 49.4285 1528.53 49.4285C1527.98 49.4285 1527.51 49.4085 1527.13 49.3685C1526.74 49.3418 1526.31 49.2618 1525.85 49.1285C1525.39 48.9952 1525.03 48.8085 1524.75 48.5685C1524.48 48.3152 1524.25 47.9618 1524.05 47.5085C1523.86 47.0418 1523.77 46.4885 1523.77 45.8485ZM1526.73 39.4285V46.0485C1526.73 46.6752 1526.83 47.0818 1527.03 47.2685C1527.23 47.4552 1527.74 47.5485 1528.57 47.5485C1529.38 47.5485 1529.88 47.4552 1530.07 47.2685C1530.27 47.0818 1530.37 46.6752 1530.37 46.0485V39.4285C1530.37 38.8018 1530.27 38.3952 1530.07 38.2085C1529.88 38.0218 1529.38 37.9285 1528.57 37.9285C1527.74 37.9285 1527.23 38.0218 1527.03 38.2085C1526.83 38.3952 1526.73 38.8018 1526.73 39.4285ZM1535.37 45.8485V39.6285C1535.37 38.9885 1535.46 38.4418 1535.65 37.9885C1535.85 37.5218 1536.08 37.1685 1536.35 36.9285C1536.63 36.6752 1536.99 36.4818 1537.45 36.3485C1537.91 36.2152 1538.34 36.1352 1538.73 36.1085C1539.11 36.0685 1539.58 36.0485 1540.13 36.0485C1540.66 36.0485 1541.11 36.0685 1541.49 36.1085C1541.87 36.1352 1542.3 36.2218 1542.77 36.3685C1543.23 36.5018 1543.61 36.6885 1543.89 36.9285C1544.18 37.1685 1544.43 37.5218 1544.63 37.9885C1544.83 38.4418 1544.93 38.9885 1544.93 39.6285V45.8485C1544.93 46.4885 1544.83 47.0418 1544.63 47.5085C1544.43 47.9618 1544.18 48.3085 1543.89 48.5485C1543.61 48.7885 1543.23 48.9818 1542.77 49.1285C1542.3 49.2618 1541.87 49.3418 1541.49 49.3685C1541.11 49.4085 1540.66 49.4285 1540.13 49.4285C1539.58 49.4285 1539.11 49.4085 1538.73 49.3685C1538.34 49.3418 1537.91 49.2618 1537.45 49.1285C1536.99 48.9952 1536.63 48.8085 1536.35 48.5685C1536.08 48.3152 1535.85 47.9618 1535.65 47.5085C1535.46 47.0418 1535.37 46.4885 1535.37 45.8485ZM1538.33 39.4285V46.0485C1538.33 46.6752 1538.43 47.0818 1538.63 47.2685C1538.83 47.4552 1539.34 47.5485 1540.17 47.5485C1540.98 47.5485 1541.48 47.4552 1541.67 47.2685C1541.87 47.0818 1541.97 46.6752 1541.97 46.0485V39.4285C1541.97 38.8018 1541.87 38.3952 1541.67 38.2085C1541.48 38.0218 1540.98 37.9285 1540.17 37.9285C1539.34 37.9285 1538.83 38.0218 1538.63 38.2085C1538.43 38.3952 1538.33 38.8018 1538.33 39.4285ZM1560.62 43.6285V46.3485C1560.62 46.8952 1560.51 47.3685 1560.3 47.7685C1560.1 48.1685 1559.85 48.4752 1559.56 48.6885C1559.27 48.8885 1558.89 49.0485 1558.42 49.1685C1557.97 49.2885 1557.56 49.3618 1557.2 49.3885C1556.84 49.4152 1556.41 49.4285 1555.92 49.4285C1554.92 49.4285 1553.54 49.3552 1551.78 49.2085V46.7885C1553.39 47.0952 1554.64 47.2485 1555.52 47.2485C1556.24 47.2485 1556.77 47.1685 1557.1 47.0085C1557.45 46.8485 1557.62 46.5818 1557.62 46.2085V44.2685C1557.62 43.9085 1557.5 43.6552 1557.26 43.5085C1557.02 43.3485 1556.63 43.2685 1556.08 43.2685H1552.08V36.2485H1560.28V38.4885H1555V41.1285H1557.04C1557.41 41.1285 1557.78 41.1618 1558.14 41.2285C1558.51 41.2952 1558.89 41.4152 1559.28 41.5885C1559.68 41.7485 1560 42.0085 1560.24 42.3685C1560.49 42.7152 1560.62 43.1352 1560.62 43.6285ZM1571.68 48.8085C1570.87 49.2218 1569.63 49.4285 1567.96 49.4285C1566.29 49.4285 1565.05 49.2218 1564.22 48.8085C1563.41 48.3952 1563 47.6485 1563 46.5685V44.3285C1563 43.8885 1563.21 43.4885 1563.64 43.1285C1564.08 42.7552 1564.59 42.5018 1565.16 42.3685V42.2885C1564.72 42.2352 1564.32 42.0552 1563.96 41.7485C1563.61 41.4285 1563.44 41.0552 1563.44 40.6285V38.7685C1563.44 37.8618 1563.77 37.1818 1564.42 36.7285C1565.09 36.2752 1566.27 36.0485 1567.96 36.0485C1569.65 36.0485 1570.83 36.2752 1571.48 36.7285C1572.15 37.1818 1572.48 37.8618 1572.48 38.7685V40.6285C1572.48 41.0552 1572.3 41.4285 1571.94 41.7485C1571.59 42.0552 1571.2 42.2352 1570.76 42.2885V42.3685C1571.33 42.5018 1571.83 42.7552 1572.26 43.1285C1572.7 43.4885 1572.92 43.8885 1572.92 44.3285V46.5685C1572.92 47.6485 1572.51 48.3952 1571.68 48.8085ZM1569.5 43.7085C1569.27 43.5352 1568.77 43.4485 1567.98 43.4485C1567.19 43.4485 1566.67 43.5352 1566.42 43.7085C1566.18 43.8818 1566.06 44.1685 1566.06 44.5685V46.3285C1566.06 46.8218 1566.17 47.1485 1566.38 47.3085C1566.59 47.4552 1567.12 47.5285 1567.96 47.5285C1568.8 47.5285 1569.33 47.4552 1569.54 47.3085C1569.75 47.1485 1569.86 46.8218 1569.86 46.3285V44.5685C1569.86 44.1685 1569.74 43.8818 1569.5 43.7085ZM1566.7 41.3285C1566.93 41.5018 1567.35 41.5885 1567.96 41.5885C1568.57 41.5885 1568.99 41.5018 1569.2 41.3285C1569.43 41.1552 1569.54 40.8885 1569.54 40.5285V39.0285C1569.54 38.6552 1569.43 38.3818 1569.2 38.2085C1568.99 38.0352 1568.57 37.9485 1567.96 37.9485C1567.35 37.9485 1566.93 38.0352 1566.7 38.2085C1566.49 38.3818 1566.38 38.6552 1566.38 39.0285V40.5285C1566.38 40.8885 1566.49 41.1552 1566.7 41.3285ZM1588.69 38.2485L1583.71 49.2285H1580.47L1585.47 38.5285H1579.17V36.2485H1588.69V38.2485ZM1600.53 46.6085H1599.13V49.2285L1596.49 49.2285V46.6085H1590.49V44.3085L1595.83 36.2485H1599.13V44.5085H1600.53V46.6085ZM1596.49 44.5085V39.0085L1592.99 44.5085H1596.49Z" fill="white"/>
<path d="M820.012 44.44V45.3C820.012 46.0733 819.872 46.7267 819.592 47.26C819.312 47.78 818.899 48.18 818.352 48.46C817.806 48.7267 817.206 48.9133 816.552 49.02C815.912 49.14 815.146 49.2 814.252 49.2C813.012 49.2 811.479 49.08 809.652 48.84V46.46C811.866 46.8067 813.412 46.98 814.292 46.98C816.026 46.98 816.892 46.5333 816.892 45.64V44.8C816.892 44.4133 816.779 44.1 816.552 43.86C816.326 43.6067 815.872 43.48 815.192 43.48H813.672C810.819 43.48 809.392 42.3467 809.392 40.08V39.12C809.392 38 809.859 37.1733 810.792 36.64C811.739 36.0933 813.246 35.82 815.312 35.82C816.312 35.82 817.666 35.9067 819.372 36.08V38.4C817.346 38.16 815.959 38.04 815.212 38.04C814.186 38.04 813.479 38.1267 813.092 38.3C812.706 38.4733 812.512 38.7667 812.512 39.18V40.1C812.512 40.78 813.086 41.12 814.232 41.12H815.792C817.312 41.12 818.392 41.4 819.032 41.96C819.686 42.52 820.012 43.3467 820.012 44.44ZM833.941 49H830.821V43.44H825.301V49H822.181V36.02H825.301V41.22H830.821V36.02H833.941V49ZM848.772 39.76V45.44C848.772 46.1733 848.579 46.8 848.192 47.32C847.805 47.84 847.285 48.2333 846.632 48.5C845.979 48.7533 845.325 48.9333 844.672 49.04C844.019 49.1467 843.325 49.2 842.592 49.2C841.899 49.2 841.245 49.1533 840.632 49.06C840.032 48.98 839.385 48.82 838.692 48.58C838.012 48.34 837.465 47.9533 837.052 47.42C836.652 46.8867 836.452 46.2267 836.452 45.44V39.76C836.452 39.0933 836.599 38.5067 836.892 38C837.199 37.4933 837.559 37.1067 837.972 36.84C838.399 36.5733 838.912 36.36 839.512 36.2C840.112 36.0267 840.645 35.92 841.112 35.88C841.579 35.84 842.072 35.82 842.592 35.82C843.125 35.82 843.625 35.84 844.092 35.88C844.572 35.92 845.112 36.0267 845.712 36.2C846.312 36.36 846.825 36.5733 847.252 36.84C847.679 37.1067 848.039 37.4933 848.332 38C848.625 38.4933 848.772 39.08 848.772 39.76ZM845.652 45.44V39.74C845.652 39.1133 845.392 38.6733 844.872 38.42C844.365 38.1667 843.612 38.04 842.612 38.04C841.599 38.04 840.839 38.1667 840.332 38.42C839.825 38.66 839.572 39.1 839.572 39.74V45.44C839.572 45.7733 839.659 46.0533 839.832 46.28C840.005 46.4933 840.252 46.6467 840.572 46.74C840.905 46.8333 841.219 46.9 841.512 46.94C841.819 46.9667 842.192 46.98 842.632 46.98C843.072 46.98 843.439 46.9667 843.732 46.94C844.039 46.9 844.352 46.8333 844.672 46.74C844.992 46.6467 845.232 46.4933 845.392 46.28C845.565 46.0533 845.652 45.7733 845.652 45.44ZM869.423 36.02L865.263 49L862.183 49L859.703 39.58L857.143 49H854.063L850.043 36.02H853.283L855.803 45.5L858.323 36.02H861.223L863.943 45.5L866.263 36.02L869.423 36.02ZM882.55 49H878.95L875.55 43.9H874.11V49H870.99V36.02H876.83C878.536 36.02 879.783 36.2267 880.57 36.64C881.356 37.0533 881.75 37.76 881.75 38.76V41.04C881.75 41.8267 881.463 42.4333 880.89 42.86C880.33 43.2867 879.63 43.5533 878.79 43.66L882.55 49ZM878.69 40.42V39.5C878.69 39.02 878.543 38.6933 878.25 38.52C877.97 38.3333 877.483 38.24 876.79 38.24H874.11V41.84H876.79C877.523 41.84 878.023 41.7467 878.29 41.56C878.556 41.36 878.69 40.98 878.69 40.42ZM894.449 49H884.349V36.02H894.249V38.24H887.469V41.22H893.589V43.44H887.469V46.78H894.449V49ZM906.656 49H896.556V36.02H906.456V38.24H899.676V41.22H905.796V43.44H899.676V46.78H906.656V49ZM918.263 49H908.763V36.02H911.883V46.78H918.263V49Z" fill="white"/>
<path d="M1658.2 49H1656.06L1652.71 44.014H1651.02V49H1649.27V37.318H1653.37C1654.84 37.318 1655.89 37.468 1656.52 37.768C1657.16 38.056 1657.48 38.668 1657.48 39.604V41.62C1657.48 42.34 1657.18 42.886 1656.6 43.258C1656.01 43.618 1655.29 43.798 1654.45 43.798L1658.2 49ZM1655.73 41.404V39.784C1655.73 38.908 1654.98 38.47 1653.46 38.47H1651.02V42.862H1653.3C1654.13 42.862 1654.74 42.76 1655.14 42.556C1655.53 42.352 1655.73 41.968 1655.73 41.404ZM1667.87 49H1666.25V47.938C1666.08 48.766 1665.13 49.18 1663.39 49.18C1662.24 49.18 1661.44 48.976 1661.01 48.568C1660.58 48.148 1660.36 47.518 1660.36 46.678V40.288H1661.98V46.588C1661.98 46.804 1662 46.984 1662.04 47.128C1662.07 47.272 1662.15 47.422 1662.25 47.578C1662.37 47.722 1662.57 47.836 1662.83 47.92C1663.11 47.992 1663.45 48.028 1663.86 48.028C1664.76 48.028 1665.38 47.944 1665.73 47.776C1666.08 47.608 1666.25 47.302 1666.25 46.858V40.288H1667.87V49Z" fill="white"/>
<path d="M67.6988 41.7783C67.6988 44.1351 67.0444 45.9385 65.7356 47.1885C64.4269 48.432 62.5419 49.0537 60.0806 49.0537H56.0859V34.7764H60.5006C62.773 34.7764 64.5408 35.3883 65.804 36.6123C67.0672 37.8363 67.6988 39.5583 67.6988 41.7783ZM65.2375 41.8564C65.2375 38.4385 63.639 36.7295 60.442 36.7295H58.4202V47.0908H60.0806C63.5185 47.0908 65.2375 45.346 65.2375 41.8564Z" fill="white"/>
<path d="M86.8536 49.0537H78.7764V34.7764H86.8536V36.749H81.1107V40.6357H86.4922V42.5889H81.1107V47.0713H86.8536V49.0537Z" fill="white"/>
<path d="M106.184 45.1768C106.184 46.4463 105.725 47.4424 104.807 48.165C103.889 48.8877 102.623 49.249 101.008 49.249C99.393 49.249 98.0712 48.9984 97.0424 48.4971V46.29C97.6936 46.596 98.3838 46.8369 99.113 47.0127C99.8488 47.1885 100.532 47.2764 101.164 47.2764C102.089 47.2764 102.769 47.1006 103.205 46.749C103.648 46.3975 103.87 45.9255 103.87 45.333C103.87 44.7992 103.668 44.3467 103.264 43.9756C102.86 43.6045 102.027 43.165 100.764 42.6572C99.4614 42.1299 98.5433 41.5277 98.0094 40.8506C97.4754 40.1735 97.2085 39.3597 97.2085 38.4092C97.2085 37.2178 97.6317 36.2803 98.4782 35.5967C99.3246 34.9131 100.461 34.5713 101.887 34.5713C103.254 34.5713 104.615 34.8708 105.969 35.4697L105.227 37.374C103.957 36.8402 102.824 36.5732 101.828 36.5732C101.073 36.5732 100.5 36.7393 100.109 37.0713C99.7186 37.3968 99.5232 37.8298 99.5232 38.3701C99.5232 38.7412 99.6014 39.0602 99.7576 39.3271C99.9139 39.5876 100.171 39.835 100.529 40.0693C100.887 40.3037 101.532 40.613 102.463 40.9971C103.511 41.4333 104.28 41.8402 104.768 42.2178C105.256 42.5954 105.615 43.0218 105.842 43.4971C106.07 43.9723 106.184 44.5322 106.184 45.1768Z" fill="white"/>
<path d="M123.03 34.7764L117.709 49.0537H115.201L120.524 34.7764H123.03Z" fill="white"/>
<path d="M134.547 41.417H136.169C137.256 41.417 138.044 41.2152 138.532 40.8115C139.021 40.4079 139.265 39.8089 139.265 39.0146C139.265 38.2074 139.001 37.6279 138.474 37.2764C137.946 36.9248 137.152 36.749 136.09 36.749H134.547V41.417ZM134.547 43.3506V49.0537H132.213V34.7764H136.247C138.089 34.7764 139.454 35.1214 140.339 35.8115C141.225 36.5016 141.667 37.5433 141.667 38.9365C141.667 40.7139 140.743 41.9801 138.894 42.7354L142.927 49.0537H140.271L136.852 43.3506H134.547Z" fill="white"/>
<path d="M161.086 49.0537H153.009V34.7764H161.086V36.749H155.343V40.6357H160.725V42.5889H155.343V47.0713H161.086V49.0537Z" fill="white"/>
<line x1="0.25" y1="1.09278e-08" x2="0.249958" y2="950" stroke="#808080" stroke-width="0.5"/>
<line x1="1724.25" y1="1.09278e-08" x2="1724.25" y2="950" stroke="#808080" stroke-width="0.5"/>
<path d="M1392.57 764.578H1395.8C1397.31 764.578 1398.41 764.805 1399.09 765.258C1399.76 765.711 1400.1 766.427 1400.1 767.406C1400.1 768.083 1399.91 768.643 1399.53 769.086C1399.16 769.523 1398.61 769.807 1397.88 769.938V770.016C1399.62 770.312 1400.48 771.224 1400.48 772.75C1400.48 773.771 1400.14 774.568 1399.45 775.141C1398.76 775.714 1397.79 776 1396.55 776H1392.57V764.578ZM1393.9 769.469H1396.09C1397.02 769.469 1397.7 769.323 1398.11 769.031C1398.52 768.734 1398.73 768.237 1398.73 767.539C1398.73 766.898 1398.5 766.438 1398.04 766.156C1397.58 765.87 1396.85 765.727 1395.85 765.727H1393.9V769.469ZM1393.9 770.594V774.867H1396.28C1397.2 774.867 1397.9 774.69 1398.36 774.336C1398.83 773.977 1399.06 773.417 1399.06 772.656C1399.06 771.948 1398.82 771.427 1398.34 771.094C1397.87 770.76 1397.15 770.594 1396.17 770.594H1393.9ZM1406.37 776.156C1405.1 776.156 1404.1 775.771 1403.37 775C1402.64 774.229 1402.27 773.159 1402.27 771.789C1402.27 770.409 1402.61 769.312 1403.29 768.5C1403.97 767.688 1404.89 767.281 1406.03 767.281C1407.1 767.281 1407.95 767.635 1408.58 768.344C1409.2 769.047 1409.52 769.977 1409.52 771.133V771.953H1403.62C1403.64 772.958 1403.9 773.721 1404.38 774.242C1404.86 774.763 1405.54 775.023 1406.41 775.023C1407.34 775.023 1408.25 774.831 1409.15 774.445V775.602C1408.69 775.799 1408.26 775.94 1407.84 776.023C1407.44 776.112 1406.95 776.156 1406.37 776.156ZM1406.02 768.367C1405.33 768.367 1404.78 768.591 1404.37 769.039C1403.96 769.487 1403.72 770.107 1403.65 770.898H1408.12C1408.12 770.081 1407.94 769.456 1407.58 769.023C1407.21 768.586 1406.69 768.367 1406.02 768.367ZM1417.59 776V770.461C1417.59 769.763 1417.43 769.242 1417.12 768.898C1416.8 768.555 1416.3 768.383 1415.62 768.383C1414.72 768.383 1414.07 768.628 1413.65 769.117C1413.24 769.607 1413.03 770.409 1413.03 771.523V776H1411.73V763.844H1413.03V767.523C1413.03 767.966 1413.01 768.333 1412.97 768.625H1413.05C1413.3 768.214 1413.66 767.891 1414.13 767.656C1414.61 767.417 1415.15 767.297 1415.75 767.297C1416.8 767.297 1417.58 767.547 1418.1 768.047C1418.63 768.542 1418.89 769.331 1418.89 770.414V776H1417.59ZM1426.83 776L1426.57 774.781H1426.51C1426.08 775.318 1425.65 775.682 1425.23 775.875C1424.8 776.062 1424.28 776.156 1423.64 776.156C1422.79 776.156 1422.12 775.938 1421.64 775.5C1421.16 775.062 1420.92 774.44 1420.92 773.633C1420.92 771.904 1422.3 770.997 1425.07 770.914L1426.52 770.867V770.336C1426.52 769.664 1426.38 769.169 1426.09 768.852C1425.8 768.529 1425.34 768.367 1424.7 768.367C1423.99 768.367 1423.18 768.586 1422.28 769.023L1421.88 768.031C1422.3 767.802 1422.77 767.622 1423.27 767.492C1423.77 767.362 1424.28 767.297 1424.78 767.297C1425.8 767.297 1426.56 767.523 1427.05 767.977C1427.54 768.43 1427.79 769.156 1427.79 770.156V776H1426.83ZM1423.9 775.086C1424.71 775.086 1425.34 774.865 1425.8 774.422C1426.26 773.979 1426.49 773.359 1426.49 772.562V771.789L1425.2 771.844C1424.16 771.88 1423.42 772.042 1422.96 772.328C1422.51 772.609 1422.28 773.049 1422.28 773.648C1422.28 774.117 1422.42 774.474 1422.7 774.719C1422.99 774.964 1423.39 775.086 1423.9 775.086ZM1436.33 776V770.461C1436.33 769.763 1436.17 769.242 1435.85 768.898C1435.53 768.555 1435.04 768.383 1434.36 768.383C1433.46 768.383 1432.81 768.625 1432.39 769.109C1431.97 769.594 1431.77 770.393 1431.77 771.508V776H1430.47V767.438H1431.52L1431.73 768.609H1431.8C1432.06 768.188 1432.43 767.862 1432.91 767.633C1433.39 767.398 1433.93 767.281 1434.52 767.281C1435.55 767.281 1436.32 767.531 1436.84 768.031C1437.36 768.526 1437.62 769.32 1437.62 770.414V776H1436.33ZM1443.72 776.156C1442.48 776.156 1441.52 775.776 1440.84 775.016C1440.16 774.25 1439.82 773.169 1439.82 771.773C1439.82 770.341 1440.16 769.234 1440.85 768.453C1441.54 767.672 1442.53 767.281 1443.8 767.281C1444.22 767.281 1444.63 767.326 1445.04 767.414C1445.45 767.503 1445.77 767.607 1446.01 767.727L1445.61 768.828C1445.32 768.714 1445.01 768.62 1444.67 768.547C1444.33 768.469 1444.03 768.43 1443.77 768.43C1442.03 768.43 1441.16 769.539 1441.16 771.758C1441.16 772.81 1441.38 773.617 1441.8 774.18C1442.22 774.742 1442.85 775.023 1443.69 775.023C1444.4 775.023 1445.13 774.87 1445.88 774.562V775.711C1445.31 776.008 1444.59 776.156 1443.72 776.156ZM1451.54 776.156C1450.27 776.156 1449.27 775.771 1448.54 775C1447.81 774.229 1447.45 773.159 1447.45 771.789C1447.45 770.409 1447.78 769.312 1448.46 768.5C1449.14 767.688 1450.06 767.281 1451.2 767.281C1452.28 767.281 1453.12 767.635 1453.75 768.344C1454.38 769.047 1454.69 769.977 1454.69 771.133V771.953H1448.79C1448.82 772.958 1449.07 773.721 1449.55 774.242C1450.03 774.763 1450.71 775.023 1451.59 775.023C1452.51 775.023 1453.42 774.831 1454.32 774.445V775.602C1453.86 775.799 1453.43 775.94 1453.02 776.023C1452.61 776.112 1452.12 776.156 1451.54 776.156ZM1451.19 768.367C1450.5 768.367 1449.95 768.591 1449.54 769.039C1449.13 769.487 1448.89 770.107 1448.82 770.898H1453.3C1453.3 770.081 1453.11 769.456 1452.75 769.023C1452.39 768.586 1451.86 768.367 1451.19 768.367Z" fill="#E7E7E7"/>
<path d="M1494.09 764.578H1495.52L1491.41 776H1490.09L1486 764.578H1487.41L1490.03 771.969C1490.33 772.818 1490.57 773.643 1490.75 774.445C1490.94 773.602 1491.18 772.76 1491.48 771.922L1494.09 764.578ZM1498.19 771.617C1498.41 771.299 1498.75 770.883 1499.21 770.367L1501.98 767.438H1503.52L1500.05 771.086L1503.76 776H1502.19L1499.16 771.953L1498.19 772.797V776H1496.91V763.844H1498.19V770.289C1498.19 770.576 1498.17 771.018 1498.12 771.617H1498.19ZM1512.7 771.711C1512.7 773.107 1512.35 774.198 1511.65 774.984C1510.95 775.766 1509.97 776.156 1508.73 776.156C1507.97 776.156 1507.29 775.977 1506.7 775.617C1506.1 775.258 1505.64 774.742 1505.32 774.07C1505 773.398 1504.84 772.612 1504.84 771.711C1504.84 770.315 1505.18 769.229 1505.88 768.453C1506.58 767.672 1507.55 767.281 1508.79 767.281C1509.99 767.281 1510.94 767.68 1511.64 768.477C1512.35 769.273 1512.7 770.352 1512.7 771.711ZM1506.18 771.711C1506.18 772.805 1506.4 773.638 1506.84 774.211C1507.27 774.784 1507.92 775.07 1508.77 775.07C1509.61 775.07 1510.26 774.786 1510.7 774.219C1511.14 773.646 1511.36 772.81 1511.36 771.711C1511.36 770.622 1511.14 769.797 1510.7 769.234C1510.26 768.667 1509.61 768.383 1508.75 768.383C1507.9 768.383 1507.26 768.661 1506.83 769.219C1506.4 769.776 1506.18 770.607 1506.18 771.711ZM1520.84 776V770.461C1520.84 769.763 1520.68 769.242 1520.37 768.898C1520.05 768.555 1519.55 768.383 1518.88 768.383C1517.98 768.383 1517.32 768.625 1516.91 769.109C1516.49 769.594 1516.28 770.393 1516.28 771.508V776H1514.98V767.438H1516.04L1516.25 768.609H1516.31C1516.58 768.188 1516.95 767.862 1517.43 767.633C1517.91 767.398 1518.44 767.281 1519.03 767.281C1520.06 767.281 1520.84 767.531 1521.36 768.031C1521.88 768.526 1522.14 769.32 1522.14 770.414V776H1520.84ZM1527.58 775.086C1527.81 775.086 1528.03 775.07 1528.24 775.039C1528.46 775.003 1528.62 774.966 1528.75 774.93V775.922C1528.61 775.99 1528.4 776.044 1528.12 776.086C1527.85 776.133 1527.61 776.156 1527.39 776.156C1525.73 776.156 1524.91 775.284 1524.91 773.539V768.445H1523.68V767.82L1524.91 767.281L1525.45 765.453H1526.2V767.438H1528.69V768.445H1526.2V773.484C1526.2 774 1526.33 774.396 1526.57 774.672C1526.82 774.948 1527.15 775.086 1527.58 775.086ZM1535.73 776L1535.48 774.781H1535.41C1534.99 775.318 1534.56 775.682 1534.13 775.875C1533.71 776.062 1533.18 776.156 1532.55 776.156C1531.7 776.156 1531.03 775.938 1530.55 775.5C1530.07 775.062 1529.83 774.44 1529.83 773.633C1529.83 771.904 1531.21 770.997 1533.98 770.914L1535.43 770.867V770.336C1535.43 769.664 1535.28 769.169 1534.99 768.852C1534.71 768.529 1534.24 768.367 1533.61 768.367C1532.9 768.367 1532.09 768.586 1531.19 769.023L1530.79 768.031C1531.21 767.802 1531.67 767.622 1532.17 767.492C1532.68 767.362 1533.18 767.297 1533.69 767.297C1534.71 767.297 1535.46 767.523 1535.95 767.977C1536.45 768.43 1536.7 769.156 1536.7 770.156V776H1535.73ZM1532.8 775.086C1533.61 775.086 1534.24 774.865 1534.7 774.422C1535.17 773.979 1535.4 773.359 1535.4 772.562V771.789L1534.1 771.844C1533.07 771.88 1532.33 772.042 1531.87 772.328C1531.41 772.609 1531.19 773.049 1531.19 773.648C1531.19 774.117 1531.33 774.474 1531.61 774.719C1531.9 774.964 1532.29 775.086 1532.8 775.086ZM1540.66 771.617C1540.88 771.299 1541.22 770.883 1541.68 770.367L1544.45 767.438H1545.98L1542.52 771.086L1546.23 776H1544.66L1541.63 771.953L1540.66 772.797V776H1539.38V763.844H1540.66V770.289C1540.66 770.576 1540.64 771.018 1540.59 771.617H1540.66ZM1550.55 775.086C1550.78 775.086 1551 775.07 1551.21 775.039C1551.42 775.003 1551.59 774.966 1551.72 774.93V775.922C1551.58 775.99 1551.37 776.044 1551.09 776.086C1550.82 776.133 1550.58 776.156 1550.36 776.156C1548.7 776.156 1547.88 775.284 1547.88 773.539V768.445H1546.65V767.82L1547.88 767.281L1548.42 765.453H1549.17V767.438H1551.66V768.445H1549.17V773.484C1549.17 774 1549.29 774.396 1549.54 774.672C1549.78 774.948 1550.12 775.086 1550.55 775.086ZM1557.05 776.156C1555.79 776.156 1554.79 775.771 1554.05 775C1553.33 774.229 1552.96 773.159 1552.96 771.789C1552.96 770.409 1553.3 769.312 1553.98 768.5C1554.66 767.688 1555.57 767.281 1556.72 767.281C1557.79 767.281 1558.64 767.635 1559.27 768.344C1559.89 769.047 1560.2 769.977 1560.2 771.133V771.953H1554.3C1554.33 772.958 1554.58 773.721 1555.06 774.242C1555.55 774.763 1556.23 775.023 1557.1 775.023C1558.02 775.023 1558.93 774.831 1559.84 774.445V775.602C1559.38 775.799 1558.94 775.94 1558.53 776.023C1558.12 776.112 1557.63 776.156 1557.05 776.156ZM1556.7 768.367C1556.02 768.367 1555.47 768.591 1555.05 769.039C1554.65 769.487 1554.41 770.107 1554.34 770.898H1558.81C1558.81 770.081 1558.63 769.456 1558.27 769.023C1557.9 768.586 1557.38 768.367 1556.7 768.367Z" fill="#E7E7E7"/>
<path d="M1593.57 776V764.578H1594.9V776H1593.57ZM1603.7 776V770.461C1603.7 769.763 1603.54 769.242 1603.23 768.898C1602.91 768.555 1602.41 768.383 1601.73 768.383C1600.84 768.383 1600.18 768.625 1599.77 769.109C1599.35 769.594 1599.14 770.393 1599.14 771.508V776H1597.84V767.438H1598.9L1599.11 768.609H1599.17C1599.44 768.188 1599.81 767.862 1600.29 767.633C1600.77 767.398 1601.3 767.281 1601.89 767.281C1602.92 767.281 1603.7 767.531 1604.22 768.031C1604.74 768.526 1605 769.32 1605 770.414V776H1603.7ZM1613.2 773.664C1613.2 774.461 1612.9 775.076 1612.3 775.508C1611.71 775.94 1610.88 776.156 1609.8 776.156C1608.67 776.156 1607.78 775.977 1607.15 775.617V774.414C1607.56 774.622 1608 774.786 1608.47 774.906C1608.94 775.026 1609.4 775.086 1609.84 775.086C1610.51 775.086 1611.03 774.979 1611.4 774.766C1611.76 774.547 1611.95 774.216 1611.95 773.773C1611.95 773.44 1611.8 773.156 1611.51 772.922C1611.22 772.682 1610.66 772.401 1609.82 772.078C1609.02 771.781 1608.46 771.523 1608.12 771.305C1607.78 771.081 1607.53 770.828 1607.37 770.547C1607.21 770.266 1607.12 769.93 1607.12 769.539C1607.12 768.841 1607.41 768.292 1607.98 767.891C1608.54 767.484 1609.32 767.281 1610.31 767.281C1611.23 767.281 1612.14 767.469 1613.02 767.844L1612.55 768.898C1611.7 768.544 1610.92 768.367 1610.22 768.367C1609.6 768.367 1609.14 768.464 1608.83 768.656C1608.52 768.849 1608.36 769.115 1608.36 769.453C1608.36 769.682 1608.42 769.878 1608.53 770.039C1608.65 770.201 1608.84 770.354 1609.1 770.5C1609.36 770.646 1609.86 770.857 1610.6 771.133C1611.62 771.503 1612.3 771.875 1612.66 772.25C1613.02 772.625 1613.2 773.096 1613.2 773.664ZM1618.08 775.086C1618.31 775.086 1618.53 775.07 1618.74 775.039C1618.96 775.003 1619.12 774.966 1619.25 774.93V775.922C1619.11 775.99 1618.9 776.044 1618.62 776.086C1618.35 776.133 1618.11 776.156 1617.89 776.156C1616.23 776.156 1615.41 775.284 1615.41 773.539V768.445H1614.18V767.82L1615.41 767.281L1615.95 765.453H1616.7V767.438H1619.19V768.445H1616.7V773.484C1616.7 774 1616.83 774.396 1617.07 774.672C1617.32 774.948 1617.65 775.086 1618.08 775.086ZM1626.23 776L1625.98 774.781H1625.91C1625.49 775.318 1625.06 775.682 1624.63 775.875C1624.21 776.062 1623.68 776.156 1623.05 776.156C1622.2 776.156 1621.53 775.938 1621.05 775.5C1620.57 775.062 1620.33 774.44 1620.33 773.633C1620.33 771.904 1621.71 770.997 1624.48 770.914L1625.93 770.867V770.336C1625.93 769.664 1625.78 769.169 1625.49 768.852C1625.21 768.529 1624.74 768.367 1624.11 768.367C1623.4 768.367 1622.59 768.586 1621.69 769.023L1621.29 768.031C1621.71 767.802 1622.17 767.622 1622.67 767.492C1623.18 767.362 1623.68 767.297 1624.19 767.297C1625.21 767.297 1625.96 767.523 1626.45 767.977C1626.95 768.43 1627.2 769.156 1627.2 770.156V776H1626.23ZM1623.3 775.086C1624.11 775.086 1624.74 774.865 1625.2 774.422C1625.67 773.979 1625.9 773.359 1625.9 772.562V771.789L1624.6 771.844C1623.57 771.88 1622.83 772.042 1622.37 772.328C1621.91 772.609 1621.69 773.049 1621.69 773.648C1621.69 774.117 1621.83 774.474 1622.11 774.719C1622.4 774.964 1622.79 775.086 1623.3 775.086ZM1636.88 767.438V768.258L1635.3 768.445C1635.44 768.628 1635.57 768.867 1635.69 769.164C1635.8 769.456 1635.86 769.786 1635.86 770.156C1635.86 770.995 1635.57 771.664 1635 772.164C1634.43 772.664 1633.64 772.914 1632.64 772.914C1632.39 772.914 1632.15 772.893 1631.92 772.852C1631.37 773.143 1631.09 773.51 1631.09 773.953C1631.09 774.188 1631.19 774.362 1631.38 774.477C1631.58 774.586 1631.91 774.641 1632.38 774.641H1633.89C1634.82 774.641 1635.53 774.836 1636.02 775.227C1636.52 775.617 1636.77 776.185 1636.77 776.93C1636.77 777.878 1636.39 778.599 1635.63 779.094C1634.87 779.594 1633.76 779.844 1632.3 779.844C1631.18 779.844 1630.32 779.635 1629.71 779.219C1629.11 778.802 1628.8 778.214 1628.8 777.453C1628.8 776.932 1628.97 776.482 1629.3 776.102C1629.64 775.721 1630.11 775.464 1630.71 775.328C1630.49 775.229 1630.31 775.076 1630.16 774.867C1630.01 774.659 1629.94 774.417 1629.94 774.141C1629.94 773.828 1630.02 773.555 1630.19 773.32C1630.35 773.086 1630.62 772.859 1630.98 772.641C1630.53 772.458 1630.17 772.148 1629.89 771.711C1629.61 771.273 1629.48 770.773 1629.48 770.211C1629.48 769.273 1629.76 768.552 1630.32 768.047C1630.88 767.536 1631.68 767.281 1632.71 767.281C1633.16 767.281 1633.56 767.333 1633.92 767.438H1636.88ZM1630.05 777.438C1630.05 777.901 1630.25 778.253 1630.64 778.492C1631.03 778.732 1631.59 778.852 1632.32 778.852C1633.41 778.852 1634.21 778.688 1634.73 778.359C1635.26 778.036 1635.52 777.596 1635.52 777.039C1635.52 776.576 1635.38 776.253 1635.09 776.07C1634.81 775.893 1634.27 775.805 1633.48 775.805H1631.92C1631.33 775.805 1630.88 775.945 1630.55 776.227C1630.22 776.508 1630.05 776.911 1630.05 777.438ZM1630.76 770.18C1630.76 770.779 1630.93 771.232 1631.27 771.539C1631.6 771.846 1632.08 772 1632.68 772C1633.95 772 1634.58 771.385 1634.58 770.156C1634.58 768.87 1633.94 768.227 1632.66 768.227C1632.05 768.227 1631.58 768.391 1631.25 768.719C1630.92 769.047 1630.76 769.534 1630.76 770.18ZM1642.55 767.281C1642.93 767.281 1643.27 767.312 1643.57 767.375L1643.39 768.578C1643.04 768.5 1642.72 768.461 1642.45 768.461C1641.76 768.461 1641.17 768.742 1640.67 769.305C1640.18 769.867 1639.94 770.568 1639.94 771.406V776H1638.64V767.438H1639.71L1639.86 769.023H1639.92C1640.24 768.466 1640.62 768.036 1641.07 767.734C1641.52 767.432 1642.01 767.281 1642.55 767.281ZM1650.44 776L1650.18 774.781H1650.12C1649.69 775.318 1649.26 775.682 1648.84 775.875C1648.41 776.062 1647.89 776.156 1647.25 776.156C1646.4 776.156 1645.73 775.938 1645.25 775.5C1644.77 775.062 1644.53 774.44 1644.53 773.633C1644.53 771.904 1645.91 770.997 1648.68 770.914L1650.13 770.867V770.336C1650.13 769.664 1649.99 769.169 1649.7 768.852C1649.41 768.529 1648.95 768.367 1648.31 768.367C1647.6 768.367 1646.79 768.586 1645.89 769.023L1645.49 768.031C1645.91 767.802 1646.38 767.622 1646.88 767.492C1647.38 767.362 1647.89 767.297 1648.39 767.297C1649.41 767.297 1650.17 767.523 1650.66 767.977C1651.15 768.43 1651.4 769.156 1651.4 770.156V776H1650.44ZM1647.51 775.086C1648.32 775.086 1648.95 774.865 1649.41 774.422C1649.87 773.979 1650.1 773.359 1650.1 772.562V771.789L1648.8 771.844C1647.77 771.88 1647.03 772.042 1646.57 772.328C1646.12 772.609 1645.89 773.049 1645.89 773.648C1645.89 774.117 1646.03 774.474 1646.31 774.719C1646.6 774.964 1647 775.086 1647.51 775.086ZM1664.99 776V770.43C1664.99 769.747 1664.85 769.237 1664.55 768.898C1664.26 768.555 1663.81 768.383 1663.2 768.383C1662.39 768.383 1661.79 768.615 1661.41 769.078C1661.02 769.542 1660.83 770.255 1660.83 771.219V776H1659.53V770.43C1659.53 769.747 1659.39 769.237 1659.09 768.898C1658.8 768.555 1658.35 768.383 1657.73 768.383C1656.91 768.383 1656.32 768.628 1655.94 769.117C1655.56 769.602 1655.38 770.398 1655.38 771.508V776H1654.08V767.438H1655.13L1655.34 768.609H1655.41C1655.65 768.193 1655.99 767.867 1656.44 767.633C1656.89 767.398 1657.39 767.281 1657.94 767.281C1659.28 767.281 1660.15 767.766 1660.56 768.734H1660.62C1660.88 768.286 1661.25 767.932 1661.73 767.672C1662.22 767.411 1662.77 767.281 1663.39 767.281C1664.36 767.281 1665.08 767.531 1665.56 768.031C1666.05 768.526 1666.29 769.32 1666.29 770.414V776H1664.99Z" fill="#E7E7E7"/>
<path d="M58 636L0 636" stroke="#808080" stroke-width="0.5"/>
<path d="M108.125 631.975V635.35C108.125 636.733 107.583 637.717 106.5 638.3C105.433 638.867 103.917 639.15 101.95 639.15H99.525V645H97.1V628.775H102.4C103.067 628.775 103.642 628.792 104.125 628.825C104.608 628.858 105.117 628.942 105.65 629.075C106.2 629.192 106.633 629.367 106.95 629.6C107.283 629.817 107.558 630.125 107.775 630.525C108.008 630.925 108.125 631.408 108.125 631.975ZM105.75 635.225V632.275C105.75 631.825 105.633 631.458 105.4 631.175C105.167 630.875 104.833 630.667 104.4 630.55C103.967 630.433 103.6 630.367 103.3 630.35C103.017 630.317 102.658 630.3 102.225 630.3H99.5V637.625H102.275C103.242 637.625 104.058 637.45 104.725 637.1C105.408 636.733 105.75 636.108 105.75 635.225ZM122.158 636.975V641.175C122.158 641.925 122.066 642.558 121.883 643.075C121.699 643.592 121.466 643.992 121.183 644.275C120.899 644.558 120.491 644.775 119.958 644.925C119.441 645.075 118.941 645.167 118.458 645.2C117.991 645.233 117.366 645.25 116.583 645.25C115.583 645.25 114.799 645.217 114.233 645.15C113.683 645.083 113.124 644.925 112.558 644.675C112.008 644.408 111.608 643.992 111.358 643.425C111.124 642.858 111.008 642.108 111.008 641.175V636.975C111.008 636.175 111.099 635.5 111.283 634.95C111.483 634.4 111.716 633.975 111.983 633.675C112.266 633.375 112.674 633.15 113.208 633C113.741 632.833 114.233 632.733 114.683 632.7C115.149 632.667 115.783 632.65 116.583 632.65C117.383 632.65 118.008 632.667 118.458 632.7C118.924 632.733 119.424 632.833 119.958 633C120.491 633.15 120.891 633.375 121.158 633.675C121.441 633.975 121.674 634.4 121.858 634.95C122.058 635.5 122.158 636.175 122.158 636.975ZM119.858 641.5V636.6C119.858 635.483 119.633 634.792 119.183 634.525C118.733 634.258 117.866 634.125 116.583 634.125C115.299 634.125 114.433 634.258 113.983 634.525C113.533 634.792 113.308 635.483 113.308 636.6V641.5C113.308 642.033 113.366 642.458 113.483 642.775C113.599 643.092 113.816 643.325 114.133 643.475C114.449 643.608 114.774 643.692 115.108 643.725C115.441 643.758 115.933 643.775 116.583 643.775C117.233 643.775 117.724 643.758 118.058 643.725C118.391 643.692 118.716 643.608 119.033 643.475C119.349 643.325 119.566 643.092 119.683 642.775C119.799 642.458 119.858 642.033 119.858 641.5ZM134.667 644.9C133.567 645.133 132.275 645.25 130.792 645.25C130.058 645.25 129.483 645.233 129.067 645.2C128.667 645.183 128.2 645.108 127.667 644.975C127.15 644.825 126.75 644.617 126.467 644.35C126.2 644.083 125.967 643.7 125.767 643.2C125.567 642.683 125.467 642.05 125.467 641.3V636.85C125.467 636.183 125.525 635.608 125.642 635.125C125.775 634.642 125.975 634.25 126.242 633.95C126.508 633.65 126.783 633.408 127.067 633.225C127.35 633.042 127.733 632.917 128.217 632.85C128.717 632.767 129.15 632.717 129.517 632.7C129.9 632.667 130.408 632.65 131.042 632.65C132.192 632.65 133.342 632.775 134.492 633.025V634.675C133.192 634.342 131.95 634.175 130.767 634.175C129.483 634.175 128.658 634.308 128.292 634.575C127.942 634.842 127.767 635.492 127.767 636.525V641.525C127.767 642.408 127.975 642.992 128.392 643.275C128.808 643.542 129.683 643.675 131.017 643.675C132.2 643.675 133.417 643.517 134.667 643.2V644.9ZM146.513 644.9C145.413 645.133 144.122 645.25 142.638 645.25C141.905 645.25 141.33 645.233 140.913 645.2C140.513 645.183 140.047 645.108 139.513 644.975C138.997 644.825 138.597 644.617 138.313 644.35C138.047 644.083 137.813 643.7 137.613 643.2C137.413 642.683 137.313 642.05 137.313 641.3V636.85C137.313 636.183 137.372 635.608 137.488 635.125C137.622 634.642 137.822 634.25 138.088 633.95C138.355 633.65 138.63 633.408 138.913 633.225C139.197 633.042 139.58 632.917 140.063 632.85C140.563 632.767 140.997 632.717 141.363 632.7C141.747 632.667 142.255 632.65 142.888 632.65C144.038 632.65 145.188 632.775 146.338 633.025V634.675C145.038 634.342 143.797 634.175 142.613 634.175C141.33 634.175 140.505 634.308 140.138 634.575C139.788 634.842 139.613 635.492 139.613 636.525V641.525C139.613 642.408 139.822 642.992 140.238 643.275C140.655 643.542 141.53 643.675 142.863 643.675C144.047 643.675 145.263 643.517 146.513 643.2V644.9ZM152.535 645H149.61V632.9H151.735V642.675L157.735 632.9H160.66V645H158.535V635L152.535 645ZM166.327 645H163.352L168.052 639.85C165.585 639.85 164.352 639.008 164.352 637.325V636.025C164.352 634.758 164.635 633.925 165.202 633.525C165.768 633.108 166.885 632.9 168.552 632.9H174.752V645H172.502V640.15H170.477L166.327 645ZM166.627 636.225V636.575C166.627 637.458 166.735 638.017 166.952 638.25C167.185 638.483 167.618 638.6 168.252 638.6H172.502V634.45H168.777C167.877 634.45 167.293 634.575 167.027 634.825C166.76 635.058 166.627 635.525 166.627 636.225ZM181.866 642.3L179.516 647.8H178.066L179.216 642.3H181.866ZM202.999 645H191.849V628.775H202.749V630.475H194.274V635.775H201.924V637.475H194.274V643.3H202.999V645ZM206.426 645V632.9H208.676V638.125C209.259 638.125 209.701 638.042 210.001 637.875C210.318 637.708 210.659 637.333 211.026 636.75L212.251 634.775C212.718 634.008 213.193 633.508 213.676 633.275C214.176 633.025 214.884 632.9 215.801 632.9H216.651V634.175H216.176C215.326 634.175 214.626 634.617 214.076 635.5L213.126 637.05C212.543 638.067 211.943 638.65 211.326 638.8C211.793 638.917 212.709 639.733 214.076 641.25L217.451 645H214.676L211.376 641.25C210.893 640.7 210.451 640.292 210.051 640.025C209.651 639.758 209.384 639.617 209.251 639.6C209.118 639.583 208.926 639.575 208.676 639.575V645H206.426ZM228.8 645H226.625V643.85C226.441 644.783 225.225 645.25 222.975 645.25C221.308 645.25 220.15 645 219.5 644.5C218.866 643.983 218.55 642.95 218.55 641.4C218.55 640.05 218.85 639.125 219.45 638.625C220.05 638.108 221.208 637.85 222.925 637.85H226.55V635.925C226.55 635.258 226.341 634.808 225.925 634.575C225.525 634.342 224.758 634.225 223.625 634.225C222.391 634.225 221.008 634.325 219.475 634.525V632.875C221.125 632.725 222.616 632.65 223.95 632.65C225.983 632.65 227.3 632.9 227.9 633.4C228.5 633.883 228.8 634.9 228.8 636.45V645ZM226.55 642.6V639.25H223.075C222.041 639.25 221.391 639.383 221.125 639.65C220.875 639.917 220.75 640.525 220.75 641.475C220.75 642.342 220.883 642.95 221.15 643.3C221.433 643.65 222.016 643.825 222.9 643.825H223.35C223.783 643.825 224.141 643.817 224.425 643.8C224.725 643.783 225.058 643.742 225.425 643.675C225.791 643.592 226.066 643.467 226.25 643.3C226.45 643.117 226.55 642.883 226.55 642.6ZM243.327 634.55H238.602V645H236.352V634.55H231.602V632.9H243.327V634.55ZM255.579 639.45H247.454V641.275C247.454 642.125 247.754 642.733 248.354 643.1C248.97 643.45 249.895 643.625 251.129 643.625C252.212 643.625 253.537 643.425 255.104 643.025V644.75C253.537 645.083 251.979 645.25 250.429 645.25C248.879 645.25 247.612 644.958 246.629 644.375C245.662 643.775 245.179 642.833 245.179 641.55V636.775C245.179 635.292 245.604 634.233 246.454 633.6C247.304 632.967 248.662 632.65 250.529 632.65C252.279 632.65 253.554 632.958 254.354 633.575C255.17 634.175 255.579 635.242 255.579 636.775V639.45ZM253.329 637.975V636.075C253.329 635.342 253.104 634.842 252.654 634.575C252.22 634.292 251.495 634.15 250.479 634.15C249.445 634.15 248.679 634.283 248.179 634.55C247.695 634.8 247.454 635.308 247.454 636.075V637.975H253.329ZM270.283 636.075V641.05C270.283 641.783 270.174 642.417 269.958 642.95C269.741 643.483 269.466 643.9 269.133 644.2C268.816 644.483 268.391 644.708 267.858 644.875C267.324 645.042 266.824 645.142 266.358 645.175C265.891 645.225 265.324 645.25 264.658 645.25C263.991 645.25 263.341 645.167 262.708 645C262.074 644.833 261.674 644.575 261.508 644.225V649.95H259.258V632.9H261.508V634.2C261.691 633.167 263.066 632.65 265.633 632.65C267.249 632.65 268.424 632.992 269.158 633.675C269.908 634.342 270.283 635.142 270.283 636.075ZM267.983 641.325V636.875C267.983 635.758 267.741 635.05 267.258 634.75C266.774 634.433 265.916 634.275 264.683 634.275C263.433 634.275 262.566 634.433 262.083 634.75C261.616 635.05 261.383 635.758 261.383 636.875V641.325C261.383 642.342 261.624 643 262.108 643.3C262.608 643.583 263.474 643.725 264.708 643.725C265.941 643.725 266.791 643.583 267.258 643.3C267.741 643 267.983 642.342 267.983 641.325ZM276.91 645H273.985V632.9H276.11V642.675L282.11 632.9H285.035V645H282.91V635L276.91 645ZM299.627 645H297.377V639.575H291.427V645H289.177V632.9H291.427V637.925H297.377V632.9H299.627V645ZM314.557 641.1C314.557 642 314.415 642.742 314.132 643.325C313.849 643.908 313.424 644.333 312.857 644.6C312.29 644.867 311.724 645.042 311.157 645.125C310.59 645.208 309.89 645.25 309.057 645.25C308.374 645.25 307.799 645.225 307.332 645.175C306.882 645.142 306.399 645.05 305.882 644.9C305.365 644.733 304.957 644.508 304.657 644.225C304.357 643.925 304.107 643.517 303.907 643C303.707 642.467 303.607 641.833 303.607 641.1V631.825C303.607 631.042 303.732 630.375 303.982 629.825C304.232 629.258 304.54 628.825 304.907 628.525C305.274 628.208 305.749 627.967 306.332 627.8C306.932 627.633 307.474 627.533 307.957 627.5C308.44 627.45 309.015 627.425 309.682 627.425C310.699 627.425 312.065 627.5 313.782 627.65V629.35C312.015 629.133 310.54 629.025 309.357 629.025C308.057 629.025 307.14 629.192 306.607 629.525C306.09 629.842 305.832 630.592 305.832 631.775V633.7C306.282 633.4 306.915 633.15 307.732 632.95C308.565 632.75 309.307 632.65 309.957 632.65C311.574 632.65 312.74 632.975 313.457 633.625C314.19 634.275 314.557 635.233 314.557 636.5V641.1ZM312.332 641.225V636.525C312.332 635.708 312.132 635.142 311.732 634.825C311.349 634.508 310.582 634.35 309.432 634.35C308.765 634.35 308.074 634.475 307.357 634.725C306.657 634.958 306.149 635.283 305.832 635.7V641.225C305.832 642.308 306.065 643.008 306.532 643.325C307.015 643.625 307.874 643.775 309.107 643.775C310.34 643.775 311.182 643.625 311.632 643.325C312.099 643.025 312.332 642.325 312.332 641.225ZM327.934 632.9L321.934 649.95H319.584L321.409 645.175L316.734 632.9H319.184L322.559 642.775H322.609L325.659 632.9H327.934ZM341.308 636.075V641.05C341.308 641.783 341.2 642.417 340.983 642.95C340.766 643.483 340.491 643.9 340.158 644.2C339.841 644.483 339.416 644.708 338.883 644.875C338.35 645.042 337.85 645.142 337.383 645.175C336.916 645.225 336.35 645.25 335.683 645.25C335.016 645.25 334.366 645.167 333.733 645C333.1 644.833 332.7 644.575 332.533 644.225V649.95H330.283V632.9H332.533V634.2C332.716 633.167 334.091 632.65 336.658 632.65C338.275 632.65 339.45 632.992 340.183 633.675C340.933 634.342 341.308 635.142 341.308 636.075ZM339.008 641.325V636.875C339.008 635.758 338.766 635.05 338.283 634.75C337.8 634.433 336.941 634.275 335.708 634.275C334.458 634.275 333.591 634.433 333.108 634.75C332.641 635.05 332.408 635.758 332.408 636.875V641.325C332.408 642.342 332.65 643 333.133 643.3C333.633 643.583 334.5 643.725 335.733 643.725C336.966 643.725 337.816 643.583 338.283 643.3C338.766 643 339.008 642.342 339.008 641.325ZM352.811 634.55H347.411V645H345.161V632.9H352.811V634.55ZM356.093 642.3L353.743 647.8H352.293L353.443 642.3H356.093ZM375.327 632.9L369.327 649.95H366.977L368.802 645.175L364.127 632.9H366.577L369.952 642.775H370.002L373.052 632.9H375.327ZM377.887 641.65V632.9H387.562V645H385.337V634.55H380.112V641.475C380.112 642.292 380.021 642.958 379.837 643.475C379.671 643.975 379.387 644.35 378.987 644.6C378.604 644.833 378.196 644.983 377.762 645.05C377.329 645.133 376.754 645.175 376.037 645.175C375.704 645.175 375.437 645.167 375.237 645.15V643.75C376.304 643.75 377.012 643.617 377.362 643.35C377.712 643.067 377.887 642.5 377.887 641.65ZM394.42 645H391.52V642.3H394.42V645ZM406.478 628.775H416.628V643.15H418.228V649.15H416.128V645H405.053V649.15H402.928V643.15H404.328C405.078 642.017 405.619 640.575 405.953 638.825C406.303 637.058 406.478 634.583 406.478 631.4V628.775ZM414.253 630.65H408.753V631.8C408.753 634.167 408.561 636.4 408.178 638.5C407.794 640.583 407.319 642.133 406.753 643.15H414.253V630.65ZM432.003 636.975V641.175C432.003 641.925 431.911 642.558 431.728 643.075C431.544 643.592 431.311 643.992 431.028 644.275C430.744 644.558 430.336 644.775 429.803 644.925C429.286 645.075 428.786 645.167 428.303 645.2C427.836 645.233 427.211 645.25 426.428 645.25C425.428 645.25 424.644 645.217 424.078 645.15C423.528 645.083 422.969 644.925 422.403 644.675C421.853 644.408 421.453 643.992 421.203 643.425C420.969 642.858 420.853 642.108 420.853 641.175V636.975C420.853 636.175 420.944 635.5 421.128 634.95C421.328 634.4 421.561 633.975 421.828 633.675C422.111 633.375 422.519 633.15 423.053 633C423.586 632.833 424.078 632.733 424.528 632.7C424.994 632.667 425.628 632.65 426.428 632.65C427.228 632.65 427.853 632.667 428.303 632.7C428.769 632.733 429.269 632.833 429.803 633C430.336 633.15 430.736 633.375 431.003 633.675C431.286 633.975 431.519 634.4 431.703 634.95C431.903 635.5 432.003 636.175 432.003 636.975ZM429.703 641.5V636.6C429.703 635.483 429.478 634.792 429.028 634.525C428.578 634.258 427.711 634.125 426.428 634.125C425.144 634.125 424.278 634.258 423.828 634.525C423.378 634.792 423.153 635.483 423.153 636.6V641.5C423.153 642.033 423.211 642.458 423.328 642.775C423.444 643.092 423.661 643.325 423.978 643.475C424.294 643.608 424.619 643.692 424.953 643.725C425.286 643.758 425.778 643.775 426.428 643.775C427.078 643.775 427.569 643.758 427.903 643.725C428.236 643.692 428.561 643.608 428.878 643.475C429.194 643.325 429.411 643.092 429.528 642.775C429.644 642.458 429.703 642.033 429.703 641.5ZM446.537 641.1C446.537 642 446.395 642.742 446.112 643.325C445.828 643.908 445.403 644.333 444.837 644.6C444.27 644.867 443.703 645.042 443.137 645.125C442.57 645.208 441.87 645.25 441.037 645.25C440.353 645.25 439.778 645.225 439.312 645.175C438.862 645.142 438.378 645.05 437.862 644.9C437.345 644.733 436.937 644.508 436.637 644.225C436.337 643.925 436.087 643.517 435.887 643C435.687 642.467 435.587 641.833 435.587 641.1V631.825C435.587 631.042 435.712 630.375 435.962 629.825C436.212 629.258 436.52 628.825 436.887 628.525C437.253 628.208 437.728 627.967 438.312 627.8C438.912 627.633 439.453 627.533 439.937 627.5C440.42 627.45 440.995 627.425 441.662 627.425C442.678 627.425 444.045 627.5 445.762 627.65V629.35C443.995 629.133 442.52 629.025 441.337 629.025C440.037 629.025 439.12 629.192 438.587 629.525C438.07 629.842 437.812 630.592 437.812 631.775V633.7C438.262 633.4 438.895 633.15 439.712 632.95C440.545 632.75 441.287 632.65 441.937 632.65C443.553 632.65 444.72 632.975 445.437 633.625C446.17 634.275 446.537 635.233 446.537 636.5V641.1ZM444.312 641.225V636.525C444.312 635.708 444.112 635.142 443.712 634.825C443.328 634.508 442.562 634.35 441.412 634.35C440.745 634.35 440.053 634.475 439.337 634.725C438.637 634.958 438.128 635.283 437.812 635.7V641.225C437.812 642.308 438.045 643.008 438.512 643.325C438.995 643.625 439.853 643.775 441.087 643.775C442.32 643.775 443.162 643.625 443.612 643.325C444.078 643.025 444.312 642.325 444.312 641.225ZM461.538 636.075V641.05C461.538 641.783 461.43 642.417 461.213 642.95C460.997 643.483 460.722 643.9 460.388 644.2C460.072 644.483 459.647 644.708 459.113 644.875C458.58 645.042 458.08 645.142 457.613 645.175C457.147 645.225 456.58 645.25 455.913 645.25C455.247 645.25 454.597 645.167 453.963 645C453.33 644.833 452.93 644.575 452.763 644.225V649.95H450.513V632.9H452.763V634.2C452.947 633.167 454.322 632.65 456.888 632.65C458.505 632.65 459.68 632.992 460.413 633.675C461.163 634.342 461.538 635.142 461.538 636.075ZM459.238 641.325V636.875C459.238 635.758 458.997 635.05 458.513 634.75C458.03 634.433 457.172 634.275 455.938 634.275C454.688 634.275 453.822 634.433 453.338 634.75C452.872 635.05 452.638 635.758 452.638 636.875V641.325C452.638 642.342 452.88 643 453.363 643.3C453.863 643.583 454.73 643.725 455.963 643.725C457.197 643.725 458.047 643.583 458.513 643.3C458.997 643 459.238 642.342 459.238 641.325ZM475.941 636.975V641.175C475.941 641.925 475.849 642.558 475.666 643.075C475.483 643.592 475.249 643.992 474.966 644.275C474.683 644.558 474.274 644.775 473.741 644.925C473.224 645.075 472.724 645.167 472.241 645.2C471.774 645.233 471.149 645.25 470.366 645.25C469.366 645.25 468.583 645.217 468.016 645.15C467.466 645.083 466.908 644.925 466.341 644.675C465.791 644.408 465.391 643.992 465.141 643.425C464.908 642.858 464.791 642.108 464.791 641.175V636.975C464.791 636.175 464.883 635.5 465.066 634.95C465.266 634.4 465.499 633.975 465.766 633.675C466.049 633.375 466.458 633.15 466.991 633C467.524 632.833 468.016 632.733 468.466 632.7C468.933 632.667 469.566 632.65 470.366 632.65C471.166 632.65 471.791 632.667 472.241 632.7C472.708 632.733 473.208 632.833 473.741 633C474.274 633.15 474.674 633.375 474.941 633.675C475.224 633.975 475.458 634.4 475.641 634.95C475.841 635.5 475.941 636.175 475.941 636.975ZM473.641 641.5V636.6C473.641 635.483 473.416 634.792 472.966 634.525C472.516 634.258 471.649 634.125 470.366 634.125C469.083 634.125 468.216 634.258 467.766 634.525C467.316 634.792 467.091 635.483 467.091 636.6V641.5C467.091 642.033 467.149 642.458 467.266 642.775C467.383 643.092 467.599 643.325 467.916 643.475C468.233 643.608 468.558 643.692 468.891 643.725C469.224 643.758 469.716 643.775 470.366 643.775C471.016 643.775 471.508 643.758 471.841 643.725C472.174 643.692 472.499 643.608 472.816 643.475C473.133 643.325 473.349 643.092 473.466 642.775C473.583 642.458 473.641 642.033 473.641 641.5ZM480.4 641.65V632.9H490.075V645H487.85V634.55H482.625V641.475C482.625 642.292 482.533 642.958 482.35 643.475C482.183 643.975 481.9 644.35 481.5 644.6C481.117 644.833 480.708 644.983 480.275 645.05C479.842 645.133 479.267 645.175 478.55 645.175C478.217 645.175 477.95 645.167 477.75 645.15V643.75C478.817 643.75 479.525 643.617 479.875 643.35C480.225 643.067 480.4 642.5 480.4 641.65ZM496.632 645H494.382V632.9H496.632V638.35H499.782V636.975C499.782 636.175 499.874 635.5 500.057 634.95C500.257 634.4 500.491 633.975 500.757 633.675C501.041 633.375 501.449 633.15 501.982 633C502.516 632.833 503.007 632.733 503.457 632.7C503.924 632.667 504.557 632.65 505.357 632.65C506.157 632.65 506.782 632.667 507.232 632.7C507.699 632.733 508.199 632.833 508.732 633C509.266 633.15 509.666 633.375 509.932 633.675C510.216 633.975 510.449 634.4 510.632 634.95C510.832 635.5 510.932 636.175 510.932 636.975V641.175C510.932 641.925 510.841 642.558 510.657 643.075C510.474 643.592 510.241 643.992 509.957 644.275C509.674 644.558 509.266 644.775 508.732 644.925C508.216 645.075 507.716 645.167 507.232 645.2C506.766 645.233 506.141 645.25 505.357 645.25C504.357 645.25 503.574 645.217 503.007 645.15C502.457 645.083 501.899 644.925 501.332 644.675C500.782 644.408 500.382 643.992 500.132 643.425C499.899 642.858 499.782 642.108 499.782 641.175V639.725H496.632V645ZM508.632 641.5V636.6C508.632 635.483 508.407 634.792 507.957 634.525C507.507 634.258 506.641 634.125 505.357 634.125C504.074 634.125 503.207 634.258 502.757 634.525C502.307 634.792 502.082 635.483 502.082 636.6V641.5C502.082 642.033 502.141 642.458 502.257 642.775C502.374 643.092 502.591 643.325 502.907 643.475C503.224 643.608 503.549 643.692 503.882 643.725C504.216 643.758 504.707 643.775 505.357 643.775C506.007 643.775 506.499 643.758 506.832 643.725C507.166 643.692 507.491 643.608 507.807 643.475C508.124 643.325 508.341 643.092 508.457 642.775C508.574 642.458 508.632 642.033 508.632 641.5ZM525.448 641.1C525.448 642 525.306 642.742 525.023 643.325C524.739 643.908 524.314 644.333 523.748 644.6C523.181 644.867 522.614 645.042 522.048 645.125C521.481 645.208 520.781 645.25 519.948 645.25C519.264 645.25 518.689 645.225 518.223 645.175C517.773 645.142 517.289 645.05 516.773 644.9C516.256 644.733 515.848 644.508 515.548 644.225C515.248 643.925 514.998 643.517 514.798 643C514.598 642.467 514.498 641.833 514.498 641.1V631.825C514.498 631.042 514.623 630.375 514.873 629.825C515.123 629.258 515.431 628.825 515.798 628.525C516.164 628.208 516.639 627.967 517.223 627.8C517.823 627.633 518.364 627.533 518.848 627.5C519.331 627.45 519.906 627.425 520.573 627.425C521.589 627.425 522.956 627.5 524.673 627.65V629.35C522.906 629.133 521.431 629.025 520.248 629.025C518.948 629.025 518.031 629.192 517.498 629.525C516.981 629.842 516.723 630.592 516.723 631.775V633.7C517.173 633.4 517.806 633.15 518.623 632.95C519.456 632.75 520.198 632.65 520.848 632.65C522.464 632.65 523.631 632.975 524.348 633.625C525.081 634.275 525.448 635.233 525.448 636.5V641.1ZM523.223 641.225V636.525C523.223 635.708 523.023 635.142 522.623 634.825C522.239 634.508 521.473 634.35 520.323 634.35C519.656 634.35 518.964 634.475 518.248 634.725C517.548 634.958 517.039 635.283 516.723 635.7V641.225C516.723 642.308 516.956 643.008 517.423 643.325C517.906 643.625 518.764 643.775 519.998 643.775C521.231 643.775 522.073 643.625 522.523 643.325C522.989 643.025 523.223 642.325 523.223 641.225ZM540.125 636.975V641.175C540.125 641.925 540.033 642.558 539.85 643.075C539.666 643.592 539.433 643.992 539.15 644.275C538.866 644.558 538.458 644.775 537.925 644.925C537.408 645.075 536.908 645.167 536.425 645.2C535.958 645.233 535.333 645.25 534.55 645.25C533.55 645.25 532.766 645.217 532.2 645.15C531.65 645.083 531.091 644.925 530.525 644.675C529.975 644.408 529.575 643.992 529.325 643.425C529.091 642.858 528.975 642.108 528.975 641.175V636.975C528.975 636.175 529.066 635.5 529.25 634.95C529.45 634.4 529.683 633.975 529.95 633.675C530.233 633.375 530.641 633.15 531.175 633C531.708 632.833 532.2 632.733 532.65 632.7C533.116 632.667 533.75 632.65 534.55 632.65C535.35 632.65 535.975 632.667 536.425 632.7C536.891 632.733 537.391 632.833 537.925 633C538.458 633.15 538.858 633.375 539.125 633.675C539.408 633.975 539.641 634.4 539.825 634.95C540.025 635.5 540.125 636.175 540.125 636.975ZM537.825 641.5V636.6C537.825 635.483 537.6 634.792 537.15 634.525C536.7 634.258 535.833 634.125 534.55 634.125C533.266 634.125 532.4 634.258 531.95 634.525C531.5 634.792 531.275 635.483 531.275 636.6V641.5C531.275 642.033 531.333 642.458 531.45 642.775C531.566 643.092 531.783 643.325 532.1 643.475C532.416 643.608 532.741 643.692 533.075 643.725C533.408 643.758 533.9 643.775 534.55 643.775C535.2 643.775 535.691 643.758 536.025 643.725C536.358 643.692 536.683 643.608 537 643.475C537.316 643.325 537.533 643.092 537.65 642.775C537.766 642.458 537.825 642.033 537.825 641.5ZM554.759 641.075V641.8C554.759 643 554.375 643.833 553.609 644.3C552.859 644.767 551.492 645 549.509 645H544.034V632.9H549.334C550.4 632.9 551.259 632.967 551.909 633.1C552.575 633.217 553.05 633.425 553.334 633.725C553.634 634.025 553.825 634.325 553.909 634.625C553.992 634.925 554.034 635.333 554.034 635.85V636.275C554.034 636.942 553.859 637.433 553.509 637.75C553.159 638.05 552.609 638.283 551.859 638.45V638.55C553.792 638.867 554.759 639.708 554.759 641.075ZM551.884 636.2V636.05C551.884 635.417 551.734 634.992 551.434 634.775C551.134 634.558 550.475 634.45 549.459 634.45H546.284V638H549.534C550.534 638 551.175 637.875 551.459 637.625C551.742 637.375 551.884 636.9 551.884 636.2ZM552.459 641.725V640.925C552.459 640.492 552.275 640.142 551.909 639.875C551.559 639.608 550.842 639.475 549.759 639.475H546.284V643.375H549.634C550.8 643.375 551.559 643.258 551.909 643.025C552.275 642.792 552.459 642.358 552.459 641.725ZM568.015 645H565.84V643.85C565.656 644.783 564.44 645.25 562.19 645.25C560.523 645.25 559.365 645 558.715 644.5C558.081 643.983 557.765 642.95 557.765 641.4C557.765 640.05 558.065 639.125 558.665 638.625C559.265 638.108 560.423 637.85 562.14 637.85H565.765V635.925C565.765 635.258 565.556 634.808 565.14 634.575C564.74 634.342 563.973 634.225 562.84 634.225C561.606 634.225 560.223 634.325 558.69 634.525V632.875C560.34 632.725 561.831 632.65 563.165 632.65C565.198 632.65 566.515 632.9 567.115 633.4C567.715 633.883 568.015 634.9 568.015 636.45V645ZM565.765 642.6V639.25H562.29C561.256 639.25 560.606 639.383 560.34 639.65C560.09 639.917 559.965 640.525 559.965 641.475C559.965 642.342 560.098 642.95 560.365 643.3C560.648 643.65 561.231 643.825 562.115 643.825H562.565C562.998 643.825 563.356 643.817 563.64 643.8C563.94 643.783 564.273 643.742 564.64 643.675C565.006 643.592 565.281 643.467 565.465 643.3C565.665 643.117 565.765 642.883 565.765 642.6ZM586.379 645H584.204V631.025L579.279 634.25V632.2L584.229 628.775H586.379V645ZM603.705 638.725V641.1C603.705 642 603.564 642.742 603.28 643.325C602.997 643.908 602.572 644.333 602.005 644.6C601.439 644.867 600.872 645.042 600.305 645.125C599.739 645.208 599.039 645.25 598.205 645.25C597.522 645.25 596.947 645.225 596.48 645.175C596.03 645.142 595.547 645.05 595.03 644.9C594.514 644.733 594.105 644.508 593.805 644.225C593.505 643.925 593.255 643.517 593.055 643C592.855 642.467 592.755 641.833 592.755 641.1V632.9C592.755 632.117 592.88 631.45 593.13 630.9C593.38 630.333 593.689 629.9 594.055 629.6C594.422 629.283 594.897 629.042 595.48 628.875C596.08 628.708 596.622 628.608 597.105 628.575C597.589 628.525 598.164 628.5 598.83 628.5C599.847 628.5 601.214 628.575 602.93 628.725V630.425C601.164 630.208 599.689 630.1 598.505 630.1C597.205 630.1 596.289 630.267 595.755 630.6C595.239 630.917 594.98 631.667 594.98 632.85V635.4H598.655C599.439 635.4 600.047 635.417 600.48 635.45C600.914 635.467 601.372 635.533 601.855 635.65C602.339 635.767 602.689 635.942 602.905 636.175C603.139 636.408 603.33 636.733 603.48 637.15C603.63 637.567 603.705 638.092 603.705 638.725ZM601.48 641.225V638.8C601.48 638 601.272 637.475 600.855 637.225C600.455 636.975 599.58 636.85 598.23 636.85H594.98V641.225C594.98 642.308 595.214 643.008 595.68 643.325C596.164 643.625 597.022 643.775 598.255 643.775C599.489 643.775 600.33 643.625 600.78 643.325C601.247 643.025 601.48 642.325 601.48 641.225ZM616.007 628.5L607.907 645.25H605.982L614.082 628.5H616.007ZM629.205 645H618.305V642.1C618.305 641.617 618.388 641.175 618.555 640.775C618.722 640.358 618.913 640.017 619.13 639.75C619.363 639.483 619.697 639.217 620.13 638.95C620.563 638.667 620.922 638.45 621.205 638.3C621.505 638.15 621.93 637.958 622.48 637.725L625.18 636.525C626.247 636.042 626.78 635.317 626.78 634.35V632.125C626.78 631.342 626.53 630.825 626.03 630.575C625.547 630.325 624.747 630.2 623.63 630.2C622.48 630.2 620.897 630.375 618.88 630.725V628.975C620.613 628.658 622.355 628.5 624.105 628.5C625.888 628.5 627.18 628.767 627.98 629.3C628.797 629.833 629.205 630.742 629.205 632.025V634.675C629.205 635.575 628.972 636.258 628.505 636.725C628.038 637.192 627.205 637.7 626.005 638.25L622.255 639.975C621.155 640.475 620.605 641.208 620.605 642.175V643.25H629.205V645Z" fill="white"/>
<rect x="57" y="631" width="9" height="9" fill="white"/>
<path d="M126 697L0 697" stroke="#808080" stroke-width="0.5"/>
<path d="M178 703.025C178 704.208 177.542 705.042 176.625 705.525C175.725 706.008 174.258 706.25 172.225 706.25C170.208 706.25 168.742 706.008 167.825 705.525C166.925 705.042 166.475 704.225 166.475 703.075V700.05C166.475 699.367 166.742 698.808 167.275 698.375C167.808 697.942 168.475 697.633 169.275 697.45V697.35C168.542 697.183 167.983 696.925 167.6 696.575C167.217 696.208 167.025 695.692 167.025 695.025V692.5C167.025 692.033 167.092 691.633 167.225 691.3C167.375 690.967 167.633 690.658 168 690.375C168.367 690.075 168.9 689.858 169.6 689.725C170.3 689.575 171.175 689.5 172.225 689.5C173.275 689.5 174.15 689.575 174.85 689.725C175.55 689.858 176.083 690.075 176.45 690.375C176.817 690.658 177.067 690.967 177.2 691.3C177.35 691.633 177.425 692.033 177.425 692.5V695.025C177.425 695.692 177.233 696.208 176.85 696.575C176.483 696.925 175.933 697.183 175.2 697.35V697.45C176 697.633 176.667 697.942 177.2 698.375C177.733 698.808 178 699.367 178 700.05V703.025ZM175.15 695.25V692.625C175.15 692.008 174.925 691.575 174.475 691.325C174.025 691.075 173.275 690.95 172.225 690.95C171.175 690.95 170.425 691.075 169.975 691.325C169.525 691.575 169.3 692.008 169.3 692.625V695.25C169.3 695.9 169.517 696.342 169.95 696.575C170.383 696.792 171.142 696.9 172.225 696.9C173.308 696.9 174.067 696.792 174.5 696.575C174.933 696.342 175.15 695.9 175.15 695.25ZM175.55 703.15V700.125C175.55 699.708 175.458 699.367 175.275 699.1C175.108 698.833 174.833 698.65 174.45 698.55C174.083 698.433 173.75 698.367 173.45 698.35C173.15 698.317 172.742 698.3 172.225 698.3C171.708 698.3 171.3 698.317 171 698.35C170.7 698.367 170.358 698.433 169.975 698.55C169.608 698.65 169.333 698.833 169.15 699.1C168.983 699.367 168.9 699.708 168.9 700.125V703.15C168.9 703.75 169.15 704.175 169.65 704.425C170.15 704.675 171.008 704.8 172.225 704.8C173.442 704.8 174.3 704.675 174.8 704.425C175.3 704.175 175.55 703.75 175.55 703.15ZM198.764 703.025C198.764 704.208 198.305 705.042 197.389 705.525C196.489 706.008 195.022 706.25 192.989 706.25C190.972 706.25 189.505 706.008 188.589 705.525C187.689 705.042 187.239 704.225 187.239 703.075V700.05C187.239 699.367 187.505 698.808 188.039 698.375C188.572 697.942 189.239 697.633 190.039 697.45V697.35C189.305 697.183 188.747 696.925 188.364 696.575C187.98 696.208 187.789 695.692 187.789 695.025V692.5C187.789 692.033 187.855 691.633 187.989 691.3C188.139 690.967 188.397 690.658 188.764 690.375C189.13 690.075 189.664 689.858 190.364 689.725C191.064 689.575 191.939 689.5 192.989 689.5C194.039 689.5 194.914 689.575 195.614 689.725C196.314 689.858 196.847 690.075 197.214 690.375C197.58 690.658 197.83 690.967 197.964 691.3C198.114 691.633 198.189 692.033 198.189 692.5V695.025C198.189 695.692 197.997 696.208 197.614 696.575C197.247 696.925 196.697 697.183 195.964 697.35V697.45C196.764 697.633 197.43 697.942 197.964 698.375C198.497 698.808 198.764 699.367 198.764 700.05V703.025ZM195.914 695.25V692.625C195.914 692.008 195.689 691.575 195.239 691.325C194.789 691.075 194.039 690.95 192.989 690.95C191.939 690.95 191.189 691.075 190.739 691.325C190.289 691.575 190.064 692.008 190.064 692.625V695.25C190.064 695.9 190.28 696.342 190.714 696.575C191.147 696.792 191.905 696.9 192.989 696.9C194.072 696.9 194.83 696.792 195.264 696.575C195.697 696.342 195.914 695.9 195.914 695.25ZM196.314 703.15V700.125C196.314 699.708 196.222 699.367 196.039 699.1C195.872 698.833 195.597 698.65 195.214 698.55C194.847 698.433 194.514 698.367 194.214 698.35C193.914 698.317 193.505 698.3 192.989 698.3C192.472 698.3 192.064 698.317 191.764 698.35C191.464 698.367 191.122 698.433 190.739 698.55C190.372 698.65 190.097 698.833 189.914 699.1C189.747 699.367 189.664 699.708 189.664 700.125V703.15C189.664 703.75 189.914 704.175 190.414 704.425C190.914 704.675 191.772 704.8 192.989 704.8C194.205 704.8 195.064 704.675 195.564 704.425C196.064 704.175 196.314 703.75 196.314 703.15ZM213.491 693.875V702.1C213.491 702.817 213.374 703.442 213.141 703.975C212.924 704.492 212.641 704.9 212.291 705.2C211.957 705.483 211.524 705.708 210.991 705.875C210.457 706.042 209.949 706.142 209.466 706.175C208.982 706.225 208.407 706.25 207.741 706.25C207.057 706.25 206.474 706.225 205.991 706.175C205.524 706.142 205.016 706.05 204.466 705.9C203.932 705.733 203.499 705.508 203.166 705.225C202.849 704.925 202.582 704.517 202.366 704C202.149 703.467 202.041 702.833 202.041 702.1V693.9C202.041 693.117 202.149 692.45 202.366 691.9C202.599 691.333 202.882 690.9 203.216 690.6C203.549 690.283 203.991 690.042 204.541 689.875C205.091 689.708 205.591 689.608 206.041 689.575C206.507 689.525 207.074 689.5 207.741 689.5C208.424 689.5 208.999 689.525 209.466 689.575C209.932 689.608 210.441 689.708 210.991 689.875C211.541 690.042 211.982 690.275 212.316 690.575C212.649 690.875 212.924 691.308 213.141 691.875C213.374 692.425 213.491 693.092 213.491 693.875ZM211.216 702.225V693.725C211.216 692.542 210.949 691.792 210.416 691.475C209.899 691.142 209.016 690.975 207.766 690.975C206.482 690.975 205.582 691.142 205.066 691.475C204.566 691.792 204.316 692.542 204.316 693.725V702.225C204.316 703.308 204.582 704.008 205.116 704.325C205.649 704.625 206.541 704.775 207.791 704.775C209.041 704.775 209.924 704.625 210.441 704.325C210.957 704.008 211.216 703.308 211.216 702.225ZM228.243 693.875V702.1C228.243 702.817 228.126 703.442 227.893 703.975C227.676 704.492 227.393 704.9 227.043 705.2C226.709 705.483 226.276 705.708 225.743 705.875C225.209 706.042 224.701 706.142 224.218 706.175C223.734 706.225 223.159 706.25 222.493 706.25C221.809 706.25 221.226 706.225 220.743 706.175C220.276 706.142 219.768 706.05 219.218 705.9C218.684 705.733 218.251 705.508 217.918 705.225C217.601 704.925 217.334 704.517 217.118 704C216.901 703.467 216.793 702.833 216.793 702.1V693.9C216.793 693.117 216.901 692.45 217.118 691.9C217.351 691.333 217.634 690.9 217.968 690.6C218.301 690.283 218.743 690.042 219.293 689.875C219.843 689.708 220.343 689.608 220.793 689.575C221.259 689.525 221.826 689.5 222.493 689.5C223.176 689.5 223.751 689.525 224.218 689.575C224.684 689.608 225.193 689.708 225.743 689.875C226.293 690.042 226.734 690.275 227.068 690.575C227.401 690.875 227.676 691.308 227.893 691.875C228.126 692.425 228.243 693.092 228.243 693.875ZM225.968 702.225V693.725C225.968 692.542 225.701 691.792 225.168 691.475C224.651 691.142 223.768 690.975 222.518 690.975C221.234 690.975 220.334 691.142 219.818 691.475C219.318 691.792 219.068 692.542 219.068 693.725V702.225C219.068 703.308 219.334 704.008 219.868 704.325C220.401 704.625 221.293 704.775 222.543 704.775C223.793 704.775 224.676 704.625 225.193 704.325C225.709 704.008 225.968 703.308 225.968 702.225ZM248.606 699.525V702.775C248.606 703.375 248.473 703.9 248.206 704.35C247.956 704.783 247.648 705.125 247.281 705.375C246.915 705.608 246.448 705.8 245.881 705.95C245.315 706.083 244.79 706.167 244.306 706.2C243.84 706.233 243.298 706.25 242.681 706.25C241.331 706.25 239.756 706.092 237.956 705.775V703.975C239.973 704.392 241.631 704.6 242.931 704.6C245.148 704.6 246.256 703.975 246.256 702.725V699.95C246.256 699.6 246.156 699.317 245.956 699.1C245.773 698.867 245.498 698.708 245.131 698.625C244.781 698.525 244.465 698.467 244.181 698.45C243.898 698.417 243.556 698.4 243.156 698.4H240.031V696.85H242.731C243.131 696.85 243.465 696.842 243.731 696.825C244.015 696.792 244.34 696.733 244.706 696.65C245.073 696.55 245.356 696.383 245.556 696.15C245.756 695.917 245.856 695.617 245.856 695.25V692.35C245.856 691.5 244.856 691.075 242.856 691.075C241.573 691.075 240.048 691.208 238.281 691.475V689.75C239.715 689.6 241.231 689.525 242.831 689.525C244.631 689.525 245.965 689.725 246.831 690.125C247.698 690.508 248.131 691.208 248.131 692.225V695.35C248.131 695.9 247.915 696.342 247.481 696.675C247.048 696.992 246.523 697.2 245.906 697.3V697.4C246.29 697.467 246.615 697.542 246.881 697.625C247.148 697.692 247.423 697.8 247.706 697.95C248.006 698.1 248.231 698.308 248.381 698.575C248.531 698.842 248.606 699.158 248.606 699.525ZM263.758 693.875V702.1C263.758 702.817 263.642 703.442 263.408 703.975C263.192 704.492 262.908 704.9 262.558 705.2C262.225 705.483 261.792 705.708 261.258 705.875C260.725 706.042 260.217 706.142 259.733 706.175C259.25 706.225 258.675 706.25 258.008 706.25C257.325 706.25 256.742 706.225 256.258 706.175C255.792 706.142 255.283 706.05 254.733 705.9C254.2 705.733 253.767 705.508 253.433 705.225C253.117 704.925 252.85 704.517 252.633 704C252.417 703.467 252.308 702.833 252.308 702.1V693.9C252.308 693.117 252.417 692.45 252.633 691.9C252.867 691.333 253.15 690.9 253.483 690.6C253.817 690.283 254.258 690.042 254.808 689.875C255.358 689.708 255.858 689.608 256.308 689.575C256.775 689.525 257.342 689.5 258.008 689.5C258.692 689.5 259.267 689.525 259.733 689.575C260.2 689.608 260.708 689.708 261.258 689.875C261.808 690.042 262.25 690.275 262.583 690.575C262.917 690.875 263.192 691.308 263.408 691.875C263.642 692.425 263.758 693.092 263.758 693.875ZM261.483 702.225V693.725C261.483 692.542 261.217 691.792 260.683 691.475C260.167 691.142 259.283 690.975 258.033 690.975C256.75 690.975 255.85 691.142 255.333 691.475C254.833 691.792 254.583 692.542 254.583 693.725V702.225C254.583 703.308 254.85 704.008 255.383 704.325C255.917 704.625 256.808 704.775 258.058 704.775C259.308 704.775 260.192 704.625 260.708 704.325C261.225 704.008 261.483 703.308 261.483 702.225ZM278.51 693.875V702.1C278.51 702.817 278.393 703.442 278.16 703.975C277.943 704.492 277.66 704.9 277.31 705.2C276.977 705.483 276.543 705.708 276.01 705.875C275.477 706.042 274.968 706.142 274.485 706.175C274.002 706.225 273.427 706.25 272.76 706.25C272.077 706.25 271.493 706.225 271.01 706.175C270.543 706.142 270.035 706.05 269.485 705.9C268.952 705.733 268.518 705.508 268.185 705.225C267.868 704.925 267.602 704.517 267.385 704C267.168 703.467 267.06 702.833 267.06 702.1V693.9C267.06 693.117 267.168 692.45 267.385 691.9C267.618 691.333 267.902 690.9 268.235 690.6C268.568 690.283 269.01 690.042 269.56 689.875C270.11 689.708 270.61 689.608 271.06 689.575C271.527 689.525 272.093 689.5 272.76 689.5C273.443 689.5 274.018 689.525 274.485 689.575C274.952 689.608 275.46 689.708 276.01 689.875C276.56 690.042 277.002 690.275 277.335 690.575C277.668 690.875 277.943 691.308 278.16 691.875C278.393 692.425 278.51 693.092 278.51 693.875ZM276.235 702.225V693.725C276.235 692.542 275.968 691.792 275.435 691.475C274.918 691.142 274.035 690.975 272.785 690.975C271.502 690.975 270.602 691.142 270.085 691.475C269.585 691.792 269.335 692.542 269.335 693.725V702.225C269.335 703.308 269.602 704.008 270.135 704.325C270.668 704.625 271.56 704.775 272.81 704.775C274.06 704.775 274.943 704.625 275.46 704.325C275.977 704.008 276.235 703.308 276.235 702.225ZM298.624 699.075V702.775C298.624 703.375 298.515 703.9 298.299 704.35C298.082 704.783 297.807 705.125 297.474 705.375C297.14 705.608 296.715 705.8 296.199 705.95C295.699 706.083 295.224 706.167 294.774 706.2C294.34 706.233 293.832 706.25 293.249 706.25C291.899 706.25 290.307 706.1 288.474 705.8V704C290.407 704.4 292.024 704.6 293.324 704.6C294.307 704.6 295.04 704.458 295.524 704.175C296.024 703.892 296.274 703.408 296.274 702.725V699.5C296.274 699.15 296.199 698.867 296.049 698.65C295.899 698.417 295.674 698.258 295.374 698.175C295.074 698.075 294.799 698.017 294.549 698C294.315 697.967 294.015 697.95 293.649 697.95H288.849V689.775H298.199V691.475H291.099V696.4H294.849C295.465 696.4 296.032 696.475 296.549 696.625C297.082 696.758 297.557 697.033 297.974 697.45C298.407 697.867 298.624 698.408 298.624 699.075ZM314.051 703.025C314.051 704.208 313.592 705.042 312.676 705.525C311.776 706.008 310.309 706.25 308.276 706.25C306.259 706.25 304.792 706.008 303.876 705.525C302.976 705.042 302.526 704.225 302.526 703.075V700.05C302.526 699.367 302.792 698.808 303.326 698.375C303.859 697.942 304.526 697.633 305.326 697.45V697.35C304.592 697.183 304.034 696.925 303.651 696.575C303.267 696.208 303.076 695.692 303.076 695.025V692.5C303.076 692.033 303.142 691.633 303.276 691.3C303.426 690.967 303.684 690.658 304.051 690.375C304.417 690.075 304.951 689.858 305.651 689.725C306.351 689.575 307.226 689.5 308.276 689.5C309.326 689.5 310.201 689.575 310.901 689.725C311.601 689.858 312.134 690.075 312.501 690.375C312.867 690.658 313.117 690.967 313.251 691.3C313.401 691.633 313.476 692.033 313.476 692.5V695.025C313.476 695.692 313.284 696.208 312.901 696.575C312.534 696.925 311.984 697.183 311.251 697.35V697.45C312.051 697.633 312.717 697.942 313.251 698.375C313.784 698.808 314.051 699.367 314.051 700.05V703.025ZM311.201 695.25V692.625C311.201 692.008 310.976 691.575 310.526 691.325C310.076 691.075 309.326 690.95 308.276 690.95C307.226 690.95 306.476 691.075 306.026 691.325C305.576 691.575 305.351 692.008 305.351 692.625V695.25C305.351 695.9 305.567 696.342 306.001 696.575C306.434 696.792 307.192 696.9 308.276 696.9C309.359 696.9 310.117 696.792 310.551 696.575C310.984 696.342 311.201 695.9 311.201 695.25ZM311.601 703.15V700.125C311.601 699.708 311.509 699.367 311.326 699.1C311.159 698.833 310.884 698.65 310.501 698.55C310.134 698.433 309.801 698.367 309.501 698.35C309.201 698.317 308.792 698.3 308.276 698.3C307.759 698.3 307.351 698.317 307.051 698.35C306.751 698.367 306.409 698.433 306.026 698.55C305.659 698.65 305.384 698.833 305.201 699.1C305.034 699.367 304.951 699.708 304.951 700.125V703.15C304.951 703.75 305.201 704.175 305.701 704.425C306.201 704.675 307.059 704.8 308.276 704.8C309.492 704.8 310.351 704.675 310.851 704.425C311.351 704.175 311.601 703.75 311.601 703.15ZM334.764 691.4L328.564 706H326.164L332.664 691.4H323.364V689.775H334.764V691.4ZM349.766 702.45H348.016V706H345.941V702.45H337.866V700.475L345.216 689.775H348.016V700.725H349.766V702.45ZM345.941 700.725V691.75L339.866 700.725H345.941Z" fill="white"/>
<rect x="125" y="692" width="9" height="9" fill="white"/>
<path d="M193 760L0 760" stroke="#808080" stroke-width="0.5"/>
<path d="M244.375 767H242.125V758.275C242.125 757.975 242.1 757.725 242.05 757.525C242 757.325 241.892 757.125 241.725 756.925C241.575 756.708 241.308 756.55 240.925 756.45C240.558 756.333 240.092 756.275 239.525 756.275C238.142 756.275 237.242 756.425 236.825 756.725C236.408 757.025 236.2 757.542 236.2 758.275V767H233.95V749.5H236.2V756.375C236.433 755.225 237.758 754.65 240.175 754.65C241.775 754.65 242.875 754.942 243.475 755.525C244.075 756.092 244.375 756.958 244.375 758.125V767ZM250.781 752.875H248.531V750.525H250.781V752.875ZM250.781 767H248.531V754.9H250.781V767ZM269.908 757.15V763.375C269.908 764.192 269.7 764.767 269.283 765.1C268.867 765.433 268.25 765.6 267.433 765.6H266.658C266.092 765.6 265.617 765.517 265.233 765.35C264.867 765.167 264.642 764.942 264.558 764.675C264.392 765.042 264.133 765.292 263.783 765.425C263.433 765.542 262.742 765.6 261.708 765.6C260.358 765.6 259.4 765.375 258.833 764.925C258.267 764.458 257.983 763.5 257.983 762.05V759.3C257.983 758.067 258.283 757.217 258.883 756.75C259.483 756.267 260.592 756.025 262.208 756.025C263.842 756.025 264.908 756.267 265.408 756.75C265.925 757.217 266.183 758.067 266.183 759.3V763.775C266.183 764.008 266.258 764.167 266.408 764.25C266.558 764.333 266.808 764.375 267.158 764.375C267.508 764.375 267.75 764.342 267.883 764.275C268.017 764.192 268.083 764.025 268.083 763.775V756.85C268.083 756.25 267.875 755.742 267.458 755.325C267.058 754.892 266.525 754.583 265.858 754.4C265.208 754.2 264.575 754.058 263.958 753.975C263.342 753.892 262.708 753.85 262.058 753.85C261.408 753.85 260.792 753.892 260.208 753.975C259.625 754.058 259.025 754.2 258.408 754.4C257.808 754.583 257.325 754.892 256.958 755.325C256.608 755.742 256.433 756.25 256.433 756.85V765.025C256.433 765.575 256.617 766.05 256.983 766.45C257.35 766.833 257.842 767.117 258.458 767.3C259.075 767.5 259.675 767.633 260.258 767.7C260.842 767.783 261.45 767.825 262.083 767.825C263.033 767.825 264.142 767.742 265.408 767.575C266.675 767.425 267.533 767.292 267.983 767.175V768.625C267.567 768.758 266.758 768.892 265.558 769.025C264.358 769.175 263.183 769.25 262.033 769.25C261.35 769.25 260.7 769.217 260.083 769.15C259.467 769.1 258.8 768.975 258.083 768.775C257.383 768.592 256.775 768.342 256.258 768.025C255.758 767.725 255.333 767.3 254.983 766.75C254.65 766.2 254.483 765.567 254.483 764.85V757.175C254.483 756.225 254.733 755.425 255.233 754.775C255.733 754.108 256.4 753.625 257.233 753.325C258.083 753.025 258.883 752.817 259.633 752.7C260.4 752.583 261.2 752.525 262.033 752.525C262.917 752.525 263.75 752.583 264.533 752.7C265.317 752.8 266.142 753 267.008 753.3C267.892 753.6 268.592 754.083 269.108 754.75C269.642 755.4 269.908 756.2 269.908 757.15ZM264.358 762.4V759.4C264.358 758.45 264.233 757.867 263.983 757.65C263.75 757.433 263.133 757.325 262.133 757.325C261.167 757.325 260.558 757.442 260.308 757.675C260.058 757.892 259.933 758.467 259.933 759.4V762.4C259.933 763.25 260.058 763.783 260.308 764C260.575 764.217 261.183 764.325 262.133 764.325C263.083 764.325 263.692 764.208 263.958 763.975C264.225 763.742 264.358 763.217 264.358 762.4ZM284.191 767H281.991V765.575C281.991 766.008 281.624 766.4 280.891 766.75C280.174 767.083 279.191 767.25 277.941 767.25C276.191 767.25 274.958 766.975 274.241 766.425C273.524 765.875 273.166 764.867 273.166 763.4V758.075C273.166 756.858 273.541 755.983 274.291 755.45C275.041 754.917 276.299 754.65 278.066 754.65C279.016 754.65 279.891 754.775 280.691 755.025C281.508 755.275 281.924 755.667 281.941 756.2H281.991C281.958 754.833 281.941 753.808 281.941 753.125V749.5H284.191V767ZM281.941 763.825V757.85C281.941 756.767 280.833 756.225 278.616 756.225C277.283 756.225 276.408 756.325 275.991 756.525C275.591 756.725 275.391 757.167 275.391 757.85V763.825C275.391 764.508 275.616 764.992 276.066 765.275C276.533 765.558 277.316 765.7 278.416 765.7C279.649 765.7 280.541 765.558 281.091 765.275C281.658 764.992 281.941 764.508 281.941 763.825ZM298.098 761.45H289.973V763.275C289.973 764.125 290.273 764.733 290.873 765.1C291.473 765.45 292.365 765.625 293.548 765.625C294.698 765.625 296.057 765.425 297.623 765.025V766.75C296.123 767.083 294.665 767.25 293.248 767.25C289.548 767.25 287.698 766.017 287.698 763.55V758.775C287.698 757.292 288.123 756.233 288.973 755.6C289.823 754.967 291.182 754.65 293.048 754.65C294.798 754.65 296.073 754.958 296.873 755.575C297.69 756.175 298.098 757.242 298.098 758.775V761.45ZM295.848 759.975V758.075C295.848 757.342 295.623 756.842 295.173 756.575C294.723 756.292 293.973 756.15 292.923 756.15C291.923 756.15 291.182 756.283 290.698 756.55C290.215 756.817 289.973 757.325 289.973 758.075V759.975H295.848ZM310.752 762.75V763.8C310.752 765.1 310.294 766 309.377 766.5C308.477 767 307.177 767.25 305.477 767.25C304.177 767.25 302.794 767.15 301.327 766.95V765.225C303.327 765.542 304.727 765.7 305.527 765.7C306.527 765.7 307.277 765.608 307.777 765.425C308.277 765.225 308.527 764.825 308.527 764.225V763C308.527 762.483 308.352 762.117 308.002 761.9C307.652 761.683 307.085 761.575 306.302 761.575H304.927C303.66 761.575 302.702 761.317 302.052 760.8C301.402 760.267 301.077 759.542 301.077 758.625V757.5C301.077 755.6 302.877 754.65 306.477 754.65C306.877 754.65 308.102 754.717 310.152 754.85V756.475C308.719 756.242 307.46 756.125 306.377 756.125C305.177 756.125 304.36 756.242 303.927 756.475C303.51 756.708 303.302 757.1 303.302 757.65V758.675C303.302 759.492 304.044 759.9 305.527 759.9H306.927C309.477 759.9 310.752 760.85 310.752 762.75ZM316.362 752.875H314.112V750.525H316.362V752.875ZM316.362 767H314.112V754.9H316.362V767ZM327.039 756.575H325.789C324.756 756.575 323.989 756.708 323.489 756.975C323.006 757.242 322.764 757.742 322.764 758.475V767H320.514V754.9H322.639V756.875C322.639 756.292 322.998 755.775 323.714 755.325C324.448 754.875 325.189 754.65 325.939 754.65H327.039V756.575ZM339.479 761.45H331.354V763.275C331.354 764.125 331.654 764.733 332.254 765.1C332.854 765.45 333.746 765.625 334.929 765.625C336.079 765.625 337.437 765.425 339.004 765.025V766.75C337.504 767.083 336.046 767.25 334.629 767.25C330.929 767.25 329.079 766.017 329.079 763.55V758.775C329.079 757.292 329.504 756.233 330.354 755.6C331.204 754.967 332.562 754.65 334.429 754.65C336.179 754.65 337.454 754.958 338.254 755.575C339.071 756.175 339.479 757.242 339.479 758.775V761.45ZM337.229 759.975V758.075C337.229 757.342 337.004 756.842 336.554 756.575C336.104 756.292 335.354 756.15 334.304 756.15C333.304 756.15 332.562 756.283 332.079 756.55C331.596 756.817 331.354 757.325 331.354 758.075V759.975H337.229ZM349.158 760.75H342.208V758.95H349.158V760.75ZM361.343 762.75V763.8C361.343 765.1 360.885 766 359.968 766.5C359.068 767 357.768 767.25 356.068 767.25C354.768 767.25 353.385 767.15 351.918 766.95V765.225C353.918 765.542 355.318 765.7 356.118 765.7C357.118 765.7 357.868 765.608 358.368 765.425C358.868 765.225 359.118 764.825 359.118 764.225V763C359.118 762.483 358.943 762.117 358.593 761.9C358.243 761.683 357.676 761.575 356.893 761.575H355.518C354.251 761.575 353.293 761.317 352.643 760.8C351.993 760.267 351.668 759.542 351.668 758.625V757.5C351.668 755.6 353.468 754.65 357.068 754.65C357.468 754.65 358.693 754.717 360.743 754.85V756.475C359.31 756.242 358.051 756.125 356.968 756.125C355.768 756.125 354.951 756.242 354.518 756.475C354.101 756.708 353.893 757.1 353.893 757.65V758.675C353.893 759.492 354.635 759.9 356.118 759.9H357.518C360.068 759.9 361.343 760.85 361.343 762.75ZM367.403 767H364.503V764.3H367.403V767ZM377.874 756.575H376.624C375.591 756.575 374.824 756.708 374.324 756.975C373.841 757.242 373.599 757.742 373.599 758.475V767H371.349V754.9H373.474V756.875C373.474 756.292 373.833 755.775 374.549 755.325C375.283 754.875 376.024 754.65 376.774 754.65H377.874V756.575ZM390.789 767H388.539V765.525C388.306 766.675 386.981 767.25 384.564 767.25C382.964 767.25 381.864 766.967 381.264 766.4C380.664 765.817 380.364 764.942 380.364 763.775V754.9H382.614V763.65C382.614 763.95 382.639 764.2 382.689 764.4C382.739 764.6 382.839 764.808 382.989 765.025C383.156 765.225 383.422 765.383 383.789 765.5C384.172 765.6 384.647 765.65 385.214 765.65C386.464 765.65 387.331 765.533 387.814 765.3C388.297 765.067 388.539 764.642 388.539 764.025V754.9H390.789V767Z" fill="white"/>
<rect x="192" y="755" width="9" height="9" fill="white"/>
<path d="M1669 617H1419" stroke="white"/>
<path d="M1473.49 648.98V651.12C1473.49 653.173 1471.76 654.2 1468.29 654.2C1466.62 654.2 1465.04 654.08 1463.53 653.84V651.46C1465.29 651.807 1466.75 651.98 1467.91 651.98C1468.75 651.98 1469.37 651.887 1469.77 651.7C1470.17 651.5 1470.37 651.247 1470.37 650.94V649.44C1470.37 649.067 1470.19 648.813 1469.83 648.68C1469.47 648.533 1468.84 648.46 1467.95 648.46H1465.19V646.24H1467.95C1468.66 646.24 1469.16 646.167 1469.45 646.02C1469.76 645.873 1469.91 645.627 1469.91 645.28V644.06C1469.91 643.687 1469.74 643.427 1469.41 643.28C1469.09 643.12 1468.48 643.04 1467.57 643.04C1467.41 643.04 1466.14 643.12 1463.77 643.28V641C1465.6 640.88 1466.97 640.82 1467.89 640.82C1469.52 640.82 1470.77 641.007 1471.65 641.38C1472.53 641.74 1472.97 642.4 1472.97 643.36V645.5C1472.97 645.9 1472.84 646.233 1472.57 646.5C1472.32 646.767 1472.02 646.947 1471.67 647.04C1472.88 647.48 1473.49 648.127 1473.49 648.98ZM1484.74 654H1481.88V653.12C1481.67 653.507 1481.36 653.787 1480.96 653.96C1480.56 654.12 1479.83 654.2 1478.76 654.2C1477.46 654.2 1476.59 654 1476.16 653.6C1475.74 653.2 1475.52 652.367 1475.52 651.1C1475.52 649.953 1475.74 649.16 1476.18 648.72C1476.62 648.267 1477.41 648.04 1478.54 648.04H1481.82V647.38C1481.82 646.793 1481.68 646.407 1481.4 646.22C1481.14 646.02 1480.56 645.92 1479.68 645.92C1478.86 645.92 1477.72 646 1476.28 646.16V644.32C1477.39 644.187 1478.62 644.12 1479.98 644.12C1481.77 644.12 1483.01 644.34 1483.7 644.78C1484.4 645.207 1484.74 646.06 1484.74 647.34V654ZM1481.82 651.52V649.64H1479.82C1479.18 649.64 1478.78 649.713 1478.62 649.86C1478.46 650.007 1478.38 650.4 1478.38 651.04C1478.38 651.667 1478.46 652.047 1478.62 652.18C1478.8 652.313 1479.22 652.38 1479.9 652.38C1480.24 652.38 1480.48 652.38 1480.64 652.38C1480.8 652.367 1480.98 652.347 1481.16 652.32C1481.35 652.293 1481.48 652.253 1481.54 652.2C1481.62 652.133 1481.69 652.047 1481.74 651.94C1481.8 651.833 1481.82 651.693 1481.82 651.52ZM1487.31 654V644.32H1490.23V648.2C1490.52 648.2 1490.72 648.173 1490.83 648.12C1490.95 648.067 1491.08 647.927 1491.21 647.7L1492.15 646.16C1492.7 645.253 1493.12 644.72 1493.43 644.56C1493.74 644.4 1494.49 644.32 1495.69 644.32H1496.65V646.12H1496.33C1495.84 646.12 1495.47 646.173 1495.23 646.28C1495 646.373 1494.78 646.573 1494.57 646.88L1494.01 647.68C1493.66 648.187 1493.34 648.52 1493.03 648.68C1493.67 648.947 1494.31 649.527 1494.95 650.42L1497.49 654H1494.13L1492.29 651.3C1491.89 650.713 1491.57 650.347 1491.33 650.2C1491.09 650.053 1490.72 649.98 1490.23 649.98V654H1487.31ZM1507.11 654H1504.25V653.12C1504.03 653.507 1503.73 653.787 1503.33 653.96C1502.93 654.12 1502.19 654.2 1501.13 654.2C1499.82 654.2 1498.95 654 1498.53 653.6C1498.1 653.2 1497.89 652.367 1497.89 651.1C1497.89 649.953 1498.11 649.16 1498.55 648.72C1498.99 648.267 1499.77 648.04 1500.91 648.04H1504.19V647.38C1504.19 646.793 1504.05 646.407 1503.77 646.22C1503.5 646.02 1502.93 645.92 1502.05 645.92C1501.22 645.92 1500.09 646 1498.65 646.16V644.32C1499.75 644.187 1500.99 644.12 1502.35 644.12C1504.13 644.12 1505.37 644.34 1506.07 644.78C1506.76 645.207 1507.11 646.06 1507.11 647.34V654ZM1504.19 651.52V649.64H1502.19C1501.55 649.64 1501.15 649.713 1500.99 649.86C1500.83 650.007 1500.75 650.4 1500.75 651.04C1500.75 651.667 1500.83 652.047 1500.99 652.18C1501.16 652.313 1501.59 652.38 1502.27 652.38C1502.6 652.38 1502.85 652.38 1503.01 652.38C1503.17 652.367 1503.34 652.347 1503.53 652.32C1503.71 652.293 1503.84 652.253 1503.91 652.2C1503.99 652.133 1504.05 652.047 1504.11 651.94C1504.16 651.833 1504.19 651.693 1504.19 651.52ZM1518.19 650.54V651.46C1518.19 652.54 1517.79 653.267 1516.99 653.64C1516.21 654.013 1514.96 654.2 1513.25 654.2C1511.91 654.2 1510.52 654.1 1509.09 653.9V651.86C1510.8 652.207 1512.19 652.38 1513.27 652.38C1514.06 652.38 1514.59 652.313 1514.85 652.18C1515.13 652.047 1515.27 651.76 1515.27 651.32V650.82C1515.27 650.447 1515.09 650.187 1514.73 650.04C1514.39 649.893 1513.85 649.82 1513.11 649.82H1510.95V648H1513.11C1514.25 648 1514.81 647.653 1514.81 646.96V646.88C1514.81 646.493 1514.67 646.24 1514.39 646.12C1514.13 645.987 1513.57 645.92 1512.73 645.92C1511.72 645.92 1510.57 646 1509.29 646.16V644.3C1510.31 644.18 1511.56 644.12 1513.05 644.12C1514.81 644.12 1516.02 644.28 1516.67 644.6C1517.34 644.92 1517.67 645.507 1517.67 646.36V647.1C1517.67 647.513 1517.55 647.853 1517.29 648.12C1517.05 648.373 1516.77 648.547 1516.43 648.64C1517.61 649.067 1518.19 649.7 1518.19 650.54ZM1529.06 654H1526.2V653.12C1525.99 653.507 1525.68 653.787 1525.28 653.96C1524.88 654.12 1524.15 654.2 1523.08 654.2C1521.77 654.2 1520.91 654 1520.48 653.6C1520.05 653.2 1519.84 652.367 1519.84 651.1C1519.84 649.953 1520.06 649.16 1520.5 648.72C1520.94 648.267 1521.73 648.04 1522.86 648.04H1526.14V647.38C1526.14 646.793 1526 646.407 1525.72 646.22C1525.45 646.02 1524.88 645.92 1524 645.92C1523.17 645.92 1522.04 646 1520.6 646.16V644.32C1521.71 644.187 1522.94 644.12 1524.3 644.12C1526.09 644.12 1527.33 644.34 1528.02 644.78C1528.71 645.207 1529.06 646.06 1529.06 647.34V654ZM1526.14 651.52V649.64H1524.14C1523.5 649.64 1523.1 649.713 1522.94 649.86C1522.78 650.007 1522.7 650.4 1522.7 651.04C1522.7 651.667 1522.78 652.047 1522.94 652.18C1523.11 652.313 1523.54 652.38 1524.22 652.38C1524.55 652.38 1524.8 652.38 1524.96 652.38C1525.12 652.367 1525.29 652.347 1525.48 652.32C1525.67 652.293 1525.79 652.253 1525.86 652.2C1525.94 652.133 1526.01 652.047 1526.06 651.94C1526.11 651.833 1526.14 651.693 1526.14 651.52ZM1539.85 646.12H1536.87V654H1533.95V646.12H1530.95V644.32H1539.85V646.12ZM1551.29 650.38V651.42C1551.29 652.367 1550.88 653.033 1550.07 653.42C1549.27 653.807 1548.09 654 1546.55 654H1541.73V644.32H1544.65V647.66H1546.49C1548.45 647.66 1549.73 647.833 1550.35 648.18C1550.97 648.527 1551.29 649.26 1551.29 650.38ZM1548.27 651V650.56C1548.27 650.12 1548.13 649.833 1547.87 649.7C1547.61 649.567 1547.14 649.5 1546.45 649.5H1544.65V652.18H1546.41C1547.21 652.18 1547.71 652.1 1547.93 651.94C1548.15 651.767 1548.27 651.453 1548.27 651ZM1567.62 654H1564.7V646.12H1560.9V654H1557.98V644.32H1567.62V654ZM1580.08 647.38V650.56C1580.08 652 1579.76 652.967 1579.12 653.46C1578.48 653.953 1577.44 654.2 1576 654.2C1575.1 654.2 1574.42 654.127 1573.96 653.98C1573.52 653.833 1573.24 653.513 1573.1 653.02V658.16H1570.18V644.32H1572.94V645.28C1573.12 644.853 1573.46 644.553 1573.96 644.38C1574.48 644.207 1575.24 644.12 1576.22 644.12C1577.05 644.12 1577.72 644.187 1578.24 644.32C1578.76 644.453 1579.16 644.673 1579.42 644.98C1579.69 645.273 1579.86 645.6 1579.94 645.96C1580.04 646.32 1580.08 646.793 1580.08 647.38ZM1577.16 650.94V647.36C1577.16 646.733 1577.04 646.34 1576.8 646.18C1576.58 646.007 1576 645.92 1575.08 645.92C1574.26 645.92 1573.72 646.027 1573.46 646.24C1573.22 646.453 1573.1 646.827 1573.1 647.36V650.94C1573.1 651.513 1573.22 651.9 1573.46 652.1C1573.7 652.287 1574.25 652.38 1575.1 652.38C1575.96 652.38 1576.51 652.287 1576.76 652.1C1577.03 651.9 1577.16 651.513 1577.16 650.94ZM1591.93 647.82V650.68C1591.93 651.307 1591.83 651.847 1591.63 652.3C1591.43 652.74 1591.18 653.087 1590.89 653.34C1590.6 653.58 1590.21 653.767 1589.73 653.9C1589.26 654.033 1588.83 654.113 1588.43 654.14C1588.04 654.18 1587.57 654.2 1587.01 654.2C1586.45 654.2 1585.97 654.18 1585.57 654.14C1585.18 654.113 1584.75 654.033 1584.27 653.9C1583.8 653.767 1583.42 653.58 1583.13 653.34C1582.84 653.087 1582.59 652.74 1582.39 652.3C1582.19 651.847 1582.09 651.307 1582.09 650.68V647.82C1582.09 647.153 1582.19 646.587 1582.39 646.12C1582.6 645.64 1582.86 645.273 1583.15 645.02C1583.46 644.767 1583.85 644.573 1584.33 644.44C1584.81 644.293 1585.24 644.207 1585.61 644.18C1586 644.14 1586.46 644.12 1587.01 644.12C1587.56 644.12 1588.02 644.14 1588.39 644.18C1588.78 644.207 1589.21 644.293 1589.69 644.44C1590.17 644.573 1590.56 644.767 1590.85 645.02C1591.16 645.273 1591.41 645.64 1591.61 646.12C1591.82 646.587 1591.93 647.153 1591.93 647.82ZM1589.01 651.02V647.36C1589.01 646.84 1588.88 646.473 1588.61 646.26C1588.34 646.033 1587.81 645.92 1587.01 645.92C1586.21 645.92 1585.68 646.033 1585.41 646.26C1585.14 646.473 1585.01 646.84 1585.01 647.36V651.02C1585.01 651.527 1585.14 651.88 1585.39 652.08C1585.66 652.28 1586.2 652.38 1587.01 652.38C1587.82 652.38 1588.36 652.28 1588.61 652.08C1588.88 651.88 1589.01 651.527 1589.01 651.02ZM1603.15 649.94H1596.87V650.82C1596.87 651.367 1597.06 651.767 1597.45 652.02C1597.83 652.26 1598.56 652.38 1599.63 652.38C1600.59 652.38 1601.67 652.24 1602.87 651.96V653.82C1601.64 654.073 1600.37 654.2 1599.07 654.2C1595.64 654.2 1593.93 653.153 1593.93 651.06V647.58C1593.93 646.34 1594.33 645.453 1595.13 644.92C1595.93 644.387 1597.12 644.12 1598.71 644.12C1600.2 644.12 1601.31 644.373 1602.05 644.88C1602.78 645.387 1603.15 646.287 1603.15 647.58V649.94ZM1600.37 648.28V646.88C1600.37 646.573 1600.24 646.34 1599.99 646.18C1599.75 646.007 1599.31 645.92 1598.67 645.92C1597.96 645.92 1597.48 646.007 1597.23 646.18C1596.99 646.34 1596.87 646.573 1596.87 646.88V648.28H1600.37ZM1605.38 654V644.32H1608.3V648.2C1608.59 648.2 1608.79 648.173 1608.9 648.12C1609.02 648.067 1609.14 647.927 1609.28 647.7L1610.22 646.16C1610.76 645.253 1611.19 644.72 1611.5 644.56C1611.8 644.4 1612.56 644.32 1613.76 644.32H1614.72V646.12H1614.4C1613.9 646.12 1613.54 646.173 1613.3 646.28C1613.07 646.373 1612.85 646.573 1612.64 646.88L1612.08 647.68C1611.73 648.187 1611.4 648.52 1611.1 648.68C1611.74 648.947 1612.38 649.527 1613.02 650.42L1615.56 654H1612.2L1610.36 651.3C1609.96 650.713 1609.64 650.347 1609.4 650.2C1609.16 650.053 1608.79 649.98 1608.3 649.98V654H1605.38ZM1624.67 646.12H1621.69V654H1618.77V646.12H1615.77V644.32H1624.67V646.12Z" fill="white"/>
<path d="M1669 676L1419 676" stroke="white"/>
</svg>
